<?xml version="1.0" encoding="UTF-8"?>
<svg width="36px" height="36px" viewBox="0 0 36 36" version="1.1" xmlns="http://www.w3.org/2000/svg" xmlns:xlink="http://www.w3.org/1999/xlink">
    <!-- Generator: Sketch 54.1 (76490) - https://sketchapp.com -->
    <title>Web/L/arrow-down-circle</title>
    <desc>Created with Sketch.</desc>
    <g id="Web/L/arrow-down-circle" stroke="none" stroke-width="1" fill="none" fill-rule="evenodd">
        <g id="Group-7" fill="#000000">
            <path d="M18,0 C8.0588745,-6.08718376e-16 1.21743675e-15,8.0588745 0,18 C-1.21743675e-15,27.9411255 8.0588745,36 18,36 C27.9411255,36 36,27.9411255 36,18 C36,13.2261032 34.1035769,8.64773275 30.7279221,5.27207794 C27.3522672,1.89642313 22.7738968,2.92316873e-16 18,0 Z" id="Path"></path>
        </g>
        <path d="M18.9842148,23.0789337 L22.2338589,19.8729687 C22.6270165,19.4850956 23.260167,19.4893796 23.6480401,19.8825372 C24.0359132,20.2756948 24.0316292,20.9088453 23.6384716,21.2967184 L18.6511179,26.2170359 C18.2588344,26.6040467 17.6273918,26.6007673 17.2391492,26.209703 L12.3541722,21.2892224 C11.9650645,20.8972867 11.967357,20.2641259 12.3592928,19.8750182 C12.7512285,19.4859104 13.3843893,19.488203 13.7734971,19.8801387 L16.984234,23.114211 L16.9772472,10.4953925 C16.9769415,9.94310782 17.4244088,9.49514475 17.9766934,9.49483896 C18.5289781,9.49453317 18.9769412,9.94200046 18.9772469,10.4942851 L18.9842148,23.0789337 Z" id="path" fill="#FFFFFF"></path>
    </g>
</svg>