<svg width="200" height="200" xmlns="http://www.w3.org/2000/svg" xmlns:xlink="http://www.w3.org/1999/xlink"><defs><pattern id="t" width="16" height="16" x="0" y="0" patternUnits="userSpaceOnUse"><use xlink:href="#a"/></pattern><image id="a" width="16" height="16" xlink:href="./textures/tile.png"/><pattern id="e" width="128" height="128" x="0" y="0" patternUnits="userSpaceOnUse"><use xlink:href="#b"/></pattern><image id="b" width="128" height="128" xlink:href="./textures/grain.png"/><pattern id="j" width="128" height="128" x="0" y="0" patternUnits="userSpaceOnUse"><use xlink:href="#c"/></pattern><image id="c" width="128" height="128" xlink:href="./textures/dust.png"/><path id="d" d="M0 0h200v200H0z"/><circle id="f" cx="99.8" cy="13.8" r="161.8"/><circle id="g" cx="100" cy="100" r="62"/><path d="M35.674 63.034c3.015-6.472 4.635-9.694 4.859-9.665.224.03-.76 3.335-2.95 9.915v5.583l9.01-7.174c3.629-3.262 5.451-4.83 5.467-4.701.006.046-1.155 1.532-3.482 4.458l7.191 1.132-9.055.104-8.95 9.159 3.495 51.961h-3l-2.585-60.772z" id="h"/><path d="M38 134c9 0 13-3.021 13-16 0-5.981-2.556-10.16-4.517-15C42.161 92.333 41.667 82 45 72H31c3.333 10 2.81 20.333-1.57 31-1.937 4.718-4.43 9.13-4.43 15 0 12.979 4 16 13 16z" id="i"/><path d="M45 105.802C40.678 95.136 40.678 83.868 45 72h-7v34c5.974 3.095 8.307 3.029 7-.198z" id="k"/><path id="l" d="M0 175h200v25H0z"/><path id="m" d="M0 0h57l-9.202 98H9.202z"/><path id="o" d="M2 34h53v8H2z"/><path d="M152.612 23.01c-4.28-5.811-30.2-9.721-34.276 15.334 7.965-6.842 20.206-11.538 28.4-6.15 7.736 5.08 9.507 27.75 11.765 41.873-10.314-18.966-42.056-52.53-48.501-5.72 0 0 11.213-14.93 22.236-14.93 11.923 0 24.263 24.827 24.263 24.827L156.405 120h12.57s-2.574-13.465 0-14.527c6.174-2.548 17.165-9.134 28.652-3.567 0 0-10.61-32.906-28.9-4.64 0 0 4.446-50.572 38.273-41.615-13.078-21.948-22.341-15.917-40.868 19.809 0 0 12.599-63.565 39.257-48.273-6.28-14.828-39.19-19.077-43.702 45.488 0 0 1.053-35.91-9.075-49.665z" id="p"/><path d="M161 139H40v61H28v-61H0v-4h200v4h-27v61h-12v-61z" id="q"/><path d="M161 139h12v4h-12v-4zm-133 0h12v4H28v-4z" id="r"/><path d="M0 64.053h114a3 3 0 0 1-3 3H3a3 3 0 0 1-3-3z" id="s"/><path d="M97 64H5c-1.38 0-2.63-.56-3.536-1.464A4.984 4.984 0 0 1 0 59V5c0-1.38.56-2.63 1.464-3.536A4.984 4.984 0 0 1 5 0h92c1.38 0 2.63.56 3.536 1.464A4.984 4.984 0 0 1 102 5v54c0 1.38-.56 2.63-1.464 3.536A4.984 4.984 0 0 1 97 64z" id="u"/><path d="M41 59H4a3.987 3.987 0 0 1-2.828-1.172A3.987 3.987 0 0 1 0 55V4c0-1.105.448-2.105 1.172-2.828A3.987 3.987 0 0 1 4 0h37c1.105 0 2.105.448 2.828 1.172A3.987 3.987 0 0 1 45 4v51a3.987 3.987 0 0 1-1.172 2.828A3.987 3.987 0 0 1 41 59z" id="v"/><path d="M26.121 41.121A2.99 2.99 0 0 1 24 42H3a2.99 2.99 0 0 1-2.121-.879A2.99 2.99 0 0 1 0 39V3C0 2.172.336 1.422.879.879A2.99 2.99 0 0 1 3 0h21a2.99 2.99 0 0 1 2.121.879A2.99 2.99 0 0 1 27 3v36a2.99 2.99 0 0 1-.879 2.121z" id="w"/><path d="M39.096 52.994c0-1.379 1.44-1.997 3.385-1.997.547 0 1.065.088 1.527.246.179-1.26 1.68-2.243 3.504-2.243 1.945 0 3.522 1.118 3.522 2.496 0 .228-.044.45-.125.66.843.204 1.517.59 1.869 1.07a3.543 3.543 0 0 1 1.417-.23c.344-1.164 1.277-2 2.373-2 1.373 0 2.49 1.311 2.515 2.94.732.14 1.355.552 1.684 1.192.63 1.229-.062 2.833-1.548 3.584-.736.373-1.53.465-2.22.314-.298 1.119-1.504 1.955-2.947 1.955-1.667 0-3.018-1.117-3.018-2.496 0-.15.016-.298.047-.441a3.446 3.446 0 0 1-.546.401c.317.45.499.976.499 1.538 0 .692-.276 1.329-.739 1.836 1.117-.185 2.115.14 2.468.892.055.117.092.239.112.364 1.261.3 2.184 1.26 2.184 2.4 0 1.378-1.352 2.496-3.02 2.496h-.045c-.01.075-.025.15-.044.225-.336 1.338-1.92 2.097-3.537 1.697-1.618-.4-2.657-1.809-2.32-3.146.016-.068.037-.135.06-.2-.704-.366-1.157-.934-1.157-1.572 0-.047.003-.094.008-.14-.625-.18-1.156-.527-1.517-.976-.54.673-1.465 1.116-2.515 1.116-.988 0-1.865-.392-2.416-.998-1.372-.012-2.478-.678-2.478-1.498 0-.137.03-.27.089-.396-1.036-.03-1.878-.48-2.107-1.224-.325-1.055.704-2.302 2.298-2.786.324-.098.645-.157.956-.18.292-.641.907-1.266 1.738-1.686.711-.36 1.452-.504 2.086-.45-1.24-.494-2.042-1.725-2.042-2.763zm10.383 6.284c.202 2.39-.796 3.35-2.993 2.88 1.156-.615 2.154-1.574 2.993-2.88zm-9.44 3.848c-2.481-.204-3.123-1.106-1.926-2.707.302 1.005.944 1.907 1.927 2.707zm18.895-7.423c.099 2.47-.726 3.212-2.472 2.228.968-.42 1.792-1.162 2.472-2.228zM44.695 51.87c1.161-1.75 2.567-1.835 4.218-.257-1.695-.35-3.101-.264-4.218.257zm7.344 14.16c-.17 1.493-1.25 2.021-3.237 1.584 1.361-.24 2.44-.768 3.237-1.584zm9.756-4.797c1.242.112 2.205.922 2.205 1.906 0 .935-.872 1.714-2.026 1.885-.08.873-.91 1.677-2.058 1.911-1.35.276-2.632-.341-2.861-1.378a1.525 1.525 0 0 1 .025-.754c-.652-.26-1.08-.693-1.08-1.184 0-.517.473-.97 1.182-1.224-.005-.66.624-1.462 1.614-1.967 1.219-.622 2.522-.557 2.911.145a.955.955 0 0 1 .088.66z" id="x"/></defs><g fill="none" fill-rule="evenodd"><use fill="#D2DBDC" xlink:href="#d"/><use fill-opacity=".75" fill="url(#e)" style="mix-blend-mode:multiply" xlink:href="#d"/><use fill="#B2D4DD" style="mix-blend-mode:color" xlink:href="#d"/><use fill="#F2F6F7" xlink:href="#f"/><use fill-opacity=".75" fill="url(#e)" style="mix-blend-mode:multiply" xlink:href="#f"/><use fill="#E7FAFF" style="mix-blend-mode:color" xlink:href="#f"/><use fill="#FFF" xlink:href="#g"/><use fill-opacity=".5" fill="url(#e)" style="mix-blend-mode:multiply" xlink:href="#g"/><use fill="#E7FAFF" style="mix-blend-mode:color" xlink:href="#g"/><g transform="rotate(7 45.722 88.588)"><use fill="#4B2C04" xlink:href="#h"/><use fill="url(#e)" style="mix-blend-mode:color-burn" xlink:href="#h"/></g><use fill="#DFC468" xlink:href="#i"/><use fill="url(#j)" style="mix-blend-mode:color-burn" xlink:href="#i"/><use fill="#C69C63" xlink:href="#k"/><use fill="url(#j)" style="mix-blend-mode:color-burn" xlink:href="#k"/><use fill="#527D93" xlink:href="#l"/><use fill="url(#e)" style="mix-blend-mode:multiply" xlink:href="#l"/><g transform="translate(132.092 105)"><mask id="n" fill="#fff"><use xlink:href="#m"/></mask><use fill="#C5995D" xlink:href="#m"/><use fill="url(#j)" style="mix-blend-mode:color-burn" xlink:href="#m"/><g mask="url(#n)"><use fill="#AE7B42" xlink:href="#o"/><use fill="url(#j)" style="mix-blend-mode:color-burn" xlink:href="#o"/></g></g><g><use fill="#7C7B28" xlink:href="#p"/><use fill-opacity=".75" fill="url(#e)" style="mix-blend-mode:overlay" xlink:href="#p"/></g><g><use fill="#2C5B90" xlink:href="#q"/><use fill="url(#e)" style="mix-blend-mode:multiply" xlink:href="#q"/></g><g><use fill="#284361" xlink:href="#r"/><use fill="url(#e)" style="mix-blend-mode:multiply" xlink:href="#r"/></g><g><g transform="translate(76 67.947)"><use fill="#FFF" xlink:href="#s"/><use fill-opacity=".33" fill="url(#t)" xlink:href="#s"/></g><g transform="translate(76 67.947)"><use fill="#2D2618" xlink:href="#u"/><use fill-opacity=".33" fill="url(#t)" xlink:href="#u"/></g><g transform="translate(80 71.947)"><rect fill="#FFF" width="94" height="56" rx="1"/><circle fill="#F1F1F1" cx="47" cy="28" r="13"/><path fill="#F1F1F1" d="M63 3h28v3H63zM3 3h13v3H3z"/><path d="M51.736 28.945c-.174.065-.41.197-.59.233-.646.139-1.385.262-2.194.865 0 0 .36-.878 1.568-1.328.136-.063.391-.219.505-.315-.034-.017-.07-.035-.107-.048a1.466 1.466 0 0 0-.352-.073c-.254.098-.834.282-1.192.475-.327.2-.64.424-.886.758-.266.352-.45.69-.68 1.235.01-.273.095-.694-.02-.991-.113-.367-.324-.587-.654-.877 0 0-.295-.34-.304-.703-.165-.006-.33-.01-.496-.011-.031.197.005.693.538 1.126.634.514.136 1.139.153 1.155-.314-.226-1.072-.495-1.69-.717 0 0-.723-.21-1.378-.478-.271-.122-.487-.343-.673-.503a2.672 2.672 0 0 1-.608.128c.204.263.49.523.891.705.976.441 1.808.726 2.433 1.242 0 0 .827.407.78 1.532 0 .743-.015 1.312-.033 2.05-.007.295-.034.448-.028.598.02.542.412.427.544-.008.051-.171.096-.312.15-.609.285-1.572.57-2.388 1.435-3.316.649-.695 1.287-1.062 2.187-1.341.438-.125.934-.396 1.322-.634a1.656 1.656 0 0 1-.427-.068c-.07-.02-.134-.05-.194-.082z" fill="#865839"/><path d="M37.561 26.133c.06.35.22.638.511.922.418.407 1.09.376 1.448.655.316.246.57.655 1.024.85.698.299 1.435.462 2.12.39.163-.017.324-.043.48-.09.045-.012.086-.025.128-.038.77-.241 1.04-.455 2.094-.545.33-.028.66-.037.988-.035.165.001.33.005.496.011.781.028 1.562.101 2.347.12.372.01.84-.06 1.246-.022.124.012.244.034.352.072.038.014.072.032.107.049.292.144.487.4.778.554.06.032.123.06.194.081.152.045.293.065.426.069.732.02 1.215-.498 1.932-.668.271-.064.613.024.871-.112.49-.258.338-.686.663-.986.305-.281.938-.416 1.235-.73-1.25.031-17.507-.594-19.44-.547z" fill="#919833"/><path d="M57.035 25.649c-.257-.312-.988-.494-1.3-1.016-.503-.836-1.076-1.148-2.042-1.295-.882-.134-1.51-.01-2.393-.155-.903-.149-1.128-.703-1.9-.926-.986-.283-2.283-.206-3.295-.154-1.218.096-2.682-.021-3.87.287-.914.237-1.34 1.036-2.26 1.3-.971.28-1.624.442-2.168 1.193-.25.346-.397.83-.246 1.25a1 1 0 0 0 .212.35c.533.573 1.664.339 2.344.364 1.193.044 1.566.737 2.875.313.89-.289 1.694-.3 2.638-.247.658.036 1.558-.065 2.185.065.437.09.784.37 1.236.447 1.058.18 2.654.236 3.69.062.523-.087.944-.448 1.49-.55.473-.088.974-.06 1.444.001.46.06 1.004-.031 1.326-.259.312-.22.416-.566.034-1.03" fill="#A9B64F"/></g></g><g><g transform="translate(41 76)"><use fill="#2D2618" xlink:href="#v"/><use fill-opacity=".33" fill="url(#t)" xlink:href="#v"/></g><g transform="translate(44 79)"><rect fill="#FFF" width="39" height="53" rx="1"/><circle fill="#F1F1F1" cx="19.5" cy="26.5" r="9.5"/><path fill="#F1F1F1" d="M23 2h14v3H23zM2 2h8v3H2z"/><path d="M22.677 27.416c-.13.05-.307.154-.442.183-.485.109-1.04.205-1.646.679 0 0 .27-.69 1.176-1.044a2.21 2.21 0 0 0 .379-.247c-.026-.013-.052-.027-.08-.038-.081-.03-.171-.047-.265-.056-.19.076-.625.22-.893.373-.246.156-.48.333-.665.595-.2.276-.337.542-.51.97.008-.214.071-.545-.015-.779-.084-.287-.243-.46-.49-.688 0 0-.222-.267-.229-.553a11.63 11.63 0 0 0-.371-.009c-.024.156.003.545.403.885.475.404.102.895.115.908-.235-.177-.804-.39-1.268-.564 0 0-.542-.164-1.033-.375-.204-.096-.366-.27-.505-.395l-.096.03a1.923 1.923 0 0 1-.36.07c.153.207.367.412.669.554.731.347 1.356.57 1.824.976 0 0 .62.32.585 1.204 0 .583-.011 1.03-.025 1.61-.005.233-.025.352-.02.47.015.427.309.336.407-.006.039-.135.072-.245.113-.478.214-1.235.428-1.877 1.076-2.606.487-.546.965-.835 1.64-1.054.329-.097.701-.31.991-.497a1.19 1.19 0 0 1-.32-.054.764.764 0 0 1-.145-.064z" fill="#865839"/><path d="M12.046 25.206c.045.276.164.501.383.724.314.32.818.296 1.086.515.237.193.428.515.768.668.523.235 1.076.363 1.59.306a1.94 1.94 0 0 0 .36-.07l.096-.03c.578-.19.78-.358 1.57-.428.249-.022.495-.03.741-.028.124.001.248.004.372.009.587.022 1.172.08 1.761.094.279.008.63-.048.934-.017.094.01.183.026.264.056.029.011.054.025.08.039.22.113.366.314.584.435a.76.76 0 0 0 .145.064c.115.035.22.05.32.054.549.016.911-.391 1.45-.525.202-.05.458.019.653-.088.366-.202.252-.539.497-.774.228-.222.703-.327.926-.575-.938.025-13.13-.466-14.58-.429z" fill="#919833"/><path d="M26.651 24.826c-.192-.246-.74-.389-.975-.798-.377-.658-.806-.903-1.531-1.018-.662-.106-1.133-.008-1.795-.122-.677-.117-.846-.553-1.426-.727-.739-.223-1.712-.162-2.47-.121-.914.075-2.012-.017-2.903.225-.685.186-1.004.814-1.694 1.022-.729.219-1.218.347-1.627.937-.188.272-.297.651-.184.982.033.097.084.19.159.274.4.45 1.248.267 1.758.287.894.035 1.174.58 2.156.246.668-.227 1.27-.236 1.978-.195.494.03 1.169-.05 1.64.052.327.071.587.291.926.352.794.141 1.99.184 2.768.048.392-.069.707-.352 1.118-.432.354-.07.73-.047 1.082 0 .345.047.753-.024.995-.203.233-.172.312-.445.025-.81" fill="#A9B64F"/></g></g><g><g transform="translate(20 93)"><use fill="#2D2618" xlink:href="#w"/><use fill-opacity=".33" fill="url(#t)" xlink:href="#w"/></g><g transform="translate(22 95)"><rect fill="#FFF" width="23" height="38" rx="1"/><circle fill="#F1F1F1" cx="11.5" cy="18.5" r="9.5"/><path d="M14.677 19.416c-.13.05-.307.154-.442.183-.485.109-1.04.205-1.646.679 0 0 .27-.69 1.176-1.044a2.21 2.21 0 0 0 .379-.247c-.026-.013-.052-.027-.08-.038-.081-.03-.171-.047-.265-.056-.19.076-.625.22-.893.373-.246.156-.48.333-.665.595-.2.276-.337.542-.51.97.008-.214.071-.545-.015-.779-.084-.287-.243-.46-.49-.688 0 0-.222-.267-.229-.553a11.63 11.63 0 0 0-.371-.009c-.024.156.003.545.403.885.475.404.102.895.115.908-.235-.177-.804-.39-1.268-.564 0 0-.542-.164-1.033-.375-.204-.096-.366-.27-.505-.395l-.096.03a1.923 1.923 0 0 1-.36.07c.153.207.367.412.669.554.731.347 1.356.57 1.824.976 0 0 .62.32.585 1.204 0 .583-.011 1.03-.025 1.61-.005.233-.025.352-.02.47.015.427.309.336.407-.006.039-.135.072-.245.113-.478.214-1.235.428-1.877 1.076-2.606.487-.546.965-.835 1.64-1.054.329-.097.701-.31.991-.497a1.19 1.19 0 0 1-.32-.054.764.764 0 0 1-.145-.064z" fill="#865839"/><path d="M4.046 17.206c.045.276.164.501.383.724.314.32.818.296 1.086.515.237.193.428.515.768.668.523.235 1.076.363 1.59.306a1.94 1.94 0 0 0 .36-.07l.096-.03c.578-.19.78-.358 1.57-.428.249-.022.495-.03.741-.028.124.001.248.004.372.009.587.022 1.172.08 1.761.094.279.008.63-.048.934-.017.094.01.183.026.264.056.029.011.054.025.08.039.22.113.366.314.584.435a.76.76 0 0 0 .145.064c.115.035.22.05.32.054.549.016.911-.391 1.45-.525.202-.05.458.019.653-.088.366-.202.252-.539.497-.774.228-.222.703-.327.926-.575-.938.025-13.13-.466-14.58-.429z" fill="#919833"/><path d="M18.651 16.826c-.192-.246-.74-.389-.975-.798-.377-.658-.806-.903-1.531-1.018-.662-.106-1.133-.008-1.795-.122-.677-.117-.846-.553-1.426-.727-.739-.223-1.712-.162-2.47-.121-.914.075-2.012-.017-2.903.225-.685.186-1.004.814-1.694 1.022-.729.219-1.218.347-1.627.937-.188.272-.297.651-.184.982.033.097.084.19.159.274.4.45 1.248.267 1.758.287.894.035 1.174.58 2.156.246.668-.227 1.27-.236 1.978-.195.494.03 1.169-.05 1.64.052.327.071.587.291.926.352.794.141 1.99.184 2.768.048.392-.069.707-.352 1.118-.432.354-.07.73-.047 1.082 0 .345.047.753-.024.995-.203.233-.172.312-.445.025-.81" fill="#A9B64F"/></g><path fill="#F1F1F1" d="M24 97h7v3h-7zM40 97h3v3h-3z"/></g><g><use fill="#984264" xlink:href="#x"/><use fill-opacity=".33" fill="url(#t)" style="mix-blend-mode:overlay" xlink:href="#x"/></g></g></svg>