<svg xmlns="http://www.w3.org/2000/svg" viewBox="0 0 279.3 200"><title>Logo_color_web_rgb</title><g id="Layer_2" data-name="Layer 2"><g id="Layer_1-2" data-name="Layer 1"><path d="M192.54,147.46c-6.76-4.51-10.14-2.25-10.14-2.25a14.28,14.28,0,0,0,5.21,9.58c5.07,4.37,11.83,3.8,11.83,3.8A14.81,14.81,0,0,0,192.54,147.46ZM91.41,173.66c-4.79,8.17-2.68,15.07-2.68,15.07s5.49,1.55,12.39-7.46,4.08-17.89,4.08-17.89S96.2,165.49,91.41,173.66ZM70.14,153.1a14.28,14.28,0,0,0-5.21,9.58s3.38,2.25,10.14-2.25A14.81,14.81,0,0,0,82,149.3,17,17,0,0,0,70.14,153.1Zm62.54,18s-5.49,4.23-6.2,13.24S131.83,200,131.83,200s7-5.35,6.48-16.2S132.68,171.13,132.68,171.13Zm36.76-.14a14.19,14.19,0,0,0,1.83,10.7c3.38,5.77,10,7.32,10,7.32a14.73,14.73,0,0,0-3-12.68C173.24,169.86,169.44,171,169.44,171Zm23.1-124.65a14.81,14.81,0,0,0,6.9-11.13A17,17,0,0,0,187.61,39a14.28,14.28,0,0,0-5.21,9.58S185.78,50.85,192.54,46.34ZM73.94,55.21A14.81,14.81,0,0,0,67,44.08c-6.76-4.51-10.14-2.25-10.14-2.25a14.28,14.28,0,0,0,5.21,9.58C67.18,55.92,73.94,55.21,73.94,55.21ZM96.34,30.7a14.73,14.73,0,0,0-3-12.68c-4.93-6.48-8.87-5.35-8.87-5.35a14.19,14.19,0,0,0,1.83,10.7A16.9,16.9,0,0,0,96.34,30.7Zm76.34-7.89c6.9-8.87,4.08-17.61,4.08-17.61s-9,2.11-13.8,10.14-2.54,14.93-2.54,14.93S165.78,31.83,172.68,22.82Zm-41.27-7.89c.42-10-6.06-14.93-6.06-14.93s-5.49,6.06-4.93,14.37,5.77,12.11,5.77,12.11S131,24.93,131.41,14.93Z" fill="#36abb7"/><path d="M133.59,45.35a52.25,52.25,0,1,0,52.25,52.25A52.24,52.24,0,0,0,133.59,45.35Zm0,98.45a46.2,46.2,0,1,1,46.06-46.2A46.1,46.1,0,0,1,133.59,143.8Z" fill="#ff7950"/><path d="M133.66,59.72A38.31,38.31,0,1,0,171.83,98,38.35,38.35,0,0,0,133.66,59.72Z" fill="#36abb7"/><path d="M15.49,149,0,84.37l27.75-6.62,2.39,9.86L12.11,92l4.23,17.61,13.1-3.1,2.39,9.86-13.1,3.1L23,137l18-4.37,2.39,9.86Z" fill="#4b4a4b"/><path d="M63.38,139.58a15.28,15.28,0,0,1-11.83-2.68,15.8,15.8,0,0,1-6.48-10.28L39,90.85A15.28,15.28,0,0,1,41.69,79,15.61,15.61,0,0,1,52,72.54a15.62,15.62,0,0,1,18.17,13L71.41,93,61.13,94.65,59.86,86.9a5.6,5.6,0,0,0-2.39-3.8,5.27,5.27,0,0,0-4.37-1,5.05,5.05,0,0,0-3.66,2.39,5.82,5.82,0,0,0-1,4.37l6.34,36.06A5.32,5.32,0,0,0,57,128.59a5.62,5.62,0,0,0,4.23,1,6,6,0,0,0,3.8-2.25,5.08,5.08,0,0,0,1-4.23l-1.55-9,10.28-1.69,1.55,9.15a15.28,15.28,0,0,1-2.68,11.83A16.12,16.12,0,0,1,63.38,139.58Z" fill="#4b4a4b"/><path d="M222,123.1a17.75,17.75,0,0,1-5.35,11.13,13.88,13.88,0,0,1-7.46,3.66,15.35,15.35,0,0,1-5.63-.14,15.59,15.59,0,0,1-9.15-4.37,16.33,16.33,0,0,1-4.08-7.18,23.76,23.76,0,0,1-.7-9.58l9.58.7c-.14,3.94.42,6.76,1.83,8.73a5.34,5.34,0,0,0,3.8,2.54,6.17,6.17,0,0,0,5.63-2.39,7.38,7.38,0,0,0,1.69-4.23c.42-2.68-.42-5.63-2.54-8.73-1.69-2.11-4.23-5.35-7.46-9.72a37.83,37.83,0,0,1-5.63-9.58,21.85,21.85,0,0,1-.85-9.58c.85-5.92,3.66-10.14,8.17-12.68a15.43,15.43,0,0,1,9.58-1.41,17.12,17.12,0,0,1,8.73,3.8A13.31,13.31,0,0,1,226.06,80a18.2,18.2,0,0,1,1,7.89l-9.72.28a10.78,10.78,0,0,0-1.41-6.62,4.78,4.78,0,0,0-3.66-2.25,4.39,4.39,0,0,0-4.51,1.83,8.75,8.75,0,0,0-1.83,4.65q-.63,4.44,2.54,9.72a53.21,53.21,0,0,0,3.8,4.93,43.3,43.3,0,0,1,3.94,4.79,33.47,33.47,0,0,1,4.51,8,17.9,17.9,0,0,1,1,3.38A26.25,26.25,0,0,1,222,123.1Z" fill="#4b4a4b"/><path d="M233.8,142.68l-9.86-2,13.38-65.07,9.86,2Z" fill="#4b4a4b"/><path d="M254.79,131.83l-6.2,14.23-10.14-2.54,27.46-61.41,13.38,3.38-5.77,67-10.14-2.68,1.55-15.35Zm14.08-33.52-10.14,24.37,7.18,1.83Z" fill="#4b4a4b"/><g id="Layer_3" data-name="Layer 3"><path d="M170.92,105.63a1.79,1.79,0,0,0,.14.85c.14-.42.14-.85.28-1.41h0C171.06,105.21,171.06,105.49,170.92,105.63Z" fill="#d3da31"/><path d="M144.58,112.68a4.71,4.71,0,0,0-2.39,3.8,2.22,2.22,0,0,0,1,1c1.55-.56,3.24-3.1,2.11-4.65A1.27,1.27,0,0,0,144.58,112.68Z" fill="#d3da31"/><path d="M126.27,64.08c-.7-.28-1.55-.42-2.25-.7-1.83.42-4.08,0-6.2-.42a45.61,45.61,0,0,0-4.51,2.39,3.07,3.07,0,0,1,.7,1.13c-.28,1-1.27,2-.85,3.1a2,2,0,0,0,1,1.41c1.83.14,2.82-1,4.23-1.41s3-.42,4.37-.7C124.44,68.45,127.4,66.06,126.27,64.08Z" fill="#d3da31"/><path d="M103.87,99.3c-.7-1-1.41-2.11-2.11-3.1-1.83-1.83-3.66-3.38-6.06-3.94A38.42,38.42,0,0,0,95.28,98a37.21,37.21,0,0,0,4.51,18c.42-.42.85-.7,1.27-1.13.56-1,1.27-2,1.83-3,1-1,2.54-1.27,3.38-2.39.28-.85.7-1.83,1-2.68.56-1.13,2-2,1.69-3.52C108.24,101.13,105.42,100.85,103.87,99.3Z" fill="#d3da31"/><path d="M104.72,75.63c1.27-.56,2,1,3-.14,1.27-1.27-.42-3.38-.42-4.79a2.61,2.61,0,0,1,.28-1,37.87,37.87,0,0,0-6.48,7.75c.56-.14,1.13-.14,1.55-.28A11.66,11.66,0,0,0,104.72,75.63Z" fill="#d3da31"/><path d="M161.2,71.41a15.31,15.31,0,0,0-2.54.14,100.74,100.74,0,0,1-12,1.27c-3.8,0-5.77-3.1-9.44-2.25a9.9,9.9,0,0,0-4.79,3c-1,1.55.28,2.54-1.55,3.38-1.27-.28-1.69-1.27-2.82-1.83a2.59,2.59,0,0,0-2,1.13c-.14,1.69,1.13,2,1.13,3.66-.7,1-2.39,1.13-2.82,2.25s0,2.68-.85,3.66c-1.27,1.13-2.54,2.39-3.66,3.52-2.39,3-1.27,7.75.56,9.58s4.23.28,6.48,1.27c1.69.7,2,3.94,2.39,5.49.85,2.54-.7,3.66-.7,6.06s.85,9.3,4.23,9.15c3.8-.14,4.65-3.94,6.76-6.48.7-.85,1.83-1.27,2.39-2.54,0-1.27.14-2.68.14-3.94.85-2.25,3.52-3,4.93-4.65s.14-2.82.85-4.08a.14.14,0,0,0,.14-.14c1.13-.7,2.25-1.27,3.52-2a24.53,24.53,0,0,1,1.69-2l1.27-.42c4.37,2.25,2.82,6.76,5.92,9.15.28-.14.42-.28.7-.42.42-.56.14-1.13.42-2a4.36,4.36,0,0,1,4.65-3c1,1.27,2.68,3,3,4.79s-.85,2.68-.85,4.08a7.09,7.09,0,0,0,1.41,3.52,23.68,23.68,0,0,0,1.27-4.51,1.79,1.79,0,0,0-.14-.85c.14-.14.14-.28.28-.56h0a37.6,37.6,0,0,0-10-33.52ZM140.21,89a3.9,3.9,0,0,1-2.25-.7c-1-.14-2.11-.14-3.1-.28-.14,0-5.07-3.94-5.21-4.23.28-.7.56-.7,1-1,1.83.42,2.25,1.55,3.52,2.11.7.14,1.27.28,2,.42.7.56,1.41,1,2.11,1.55a10.13,10.13,0,0,0,2.68.56c0,.14.14.28.14.42v.7A4.69,4.69,0,0,0,140.21,89Z" fill="#d3da31"/><path d="M134.72,88l-5.21-4.23C129.79,84.08,134.58,88,134.72,88Z" fill="#d3da31"/></g></g></g></svg>