<svg width="200" height="200" xmlns="http://www.w3.org/2000/svg" xmlns:xlink="http://www.w3.org/1999/xlink"><defs><pattern id="q" width="16" height="16" x="0" y="0" patternUnits="userSpaceOnUse"><use xlink:href="#a"/></pattern><image id="a" width="16" height="16" xlink:href="./textures/tile.png"/><pattern id="j" width="128" height="128" x="0" y="0" patternUnits="userSpaceOnUse"><use xlink:href="#b"/></pattern><image id="b" width="128" height="128" xlink:href="./textures/grain.png"/><pattern id="e" width="128" height="128" x="0" y="0" patternUnits="userSpaceOnUse"><use xlink:href="#c"/></pattern><image id="c" width="128" height="128" xlink:href="./textures/dust.png"/><path id="d" d="M0 0h200v200H0z"/><circle id="f" cx="97.805" cy="99.805" r="61.805"/><path d="M150.508-.033c6.347 10.081 17.841 14.429 17.841 31.533 0 4.932-.139 14.339-3.679 20.852-7.996 14.712-13.436 33.683-14.219 46.868-1.726 29.052-33.469 47.563-50.842 50.308-18.096 2.86-57.438 22.892-72.783 50.472h22.712C61.423 178.638 78.163 170.662 99 170.662c28.01 0 79.66-28.34 79.61-70.662-.02-16.181 7.144-26.159 13.633-38.097.654-1.204 5.652-13.62 6.751-16.142 5.612-12.88-9.368-30.317-19.113-45.794h-29.373z" id="g"/><path d="M0-.033v106.328c2.791-12.37 6.106-20.167 9.945-23.389 3.307-2.776 24.14-8.182 29.52-7.29 5.379.89 12.42-3.147 14.095-6.838 1.164-2.567 3.44-5.304 2.454-9.66-.986-4.355 6.36-4.083 7.536-11.789 1.03-6.752 6.307-15.023 10.8-17.329C86.447 23.79 71.322 0 83 0 97.555 0 69.888-.01 0-.033z" id="h"/><path d="M98.671 24.84c-.679.304-1.41.48-2.171.503-3.59.11-6.5-2.264-6.5-5.302 0-2.33 1.712-4.938 4.13-6.611a5.948 5.948 0 0 1-.286-1.93c.044-2.381 1.235-4.534 3.12-6.077-1.258-.895-2.012-2.099-1.98-3.423.066-2.761 2.352-5 5.105-5 .915 0 1.896.247 2.85.68.564-2.593 5.892-5.363 10.561-5.77 5.205-.454 10.142 2.13 12.699 6.192A14.9 14.9 0 0 1 131-3.184c7.18-.653 12.561 5.473 12.02 13.684-.2 3.035-1.182 5.786-2.703 8.014a8.862 8.862 0 0 1 .914 4.165c-.1 4.595-2.666 8.321-5.731 8.321-1.42 0-3.543.008-5.509-.44.006.093.009.186.009.28 0 3.252-3.582 6.355-8 6.931-4.418.576-8-2.527-8-6.931 0-.636.075-1.244.215-1.818-.582.357-1.286.607-2.127.733-.711 1.353-2.314 2.245-4.406 2.245-3.314 0-6.6-2.239-7.341-5a4.306 4.306 0 0 1-.144-.895 15.878 15.878 0 0 1-1.526-1.265zm9.31-21.2a14.21 14.21 0 0 1 2.606 1.138c-.707-1.228-1.683-2.355-3.228-3.184.078.134.151.27.22.406.288.574.417 1.126.403 1.64zm17.057 21.104c.04-.47.129-.953.258-1.443-4.403-1.727-7.59-5.65-8.206-10.225a6.86 6.86 0 0 1-.657-.101 5.423 5.423 0 0 1-.907 3.043c.506 1.09.848 2.261.989 3.482.253 2.2.314 4.222-.024 5.882 1.435-1.171 3.374-1.752 5.509-1.473 1.075.14 2.101.43 3.038.835zM11.964 157.564c-1.258-.894-2.012-2.098-1.98-3.423.066-2.761 2.352-5 5.105-5 .915 0 1.896.248 2.85.68.564-2.592 5.892-5.362 10.561-5.77 5.205-.453 10.142 2.13 12.699 6.193A14.9 14.9 0 0 1 46 148.958c7.18-.654 12.561 5.472 12.02 13.683-.292 4.427-2.246 8.247-5.11 10.726-.79 3.35-2.938 5.774-5.41 5.774a3.8 3.8 0 0 1-.083 0c.377.804.583 1.648.583 2.5 0 3.875-4.253 7.572-9.5 8.258-5.247.686-9.5-3.01-9.5-8.258 0-.12.002-.239.007-.357-.84.456-1.909.705-3.257.705-5.76 0-14.424-4.549-15.093-10.348a10.191 10.191 0 0 1 .148-3.318c-1.269-1.342-1.992-2.952-1.96-4.682.043-2.381 1.234-4.534 3.119-6.077zm11.018-1.783a14.21 14.21 0 0 1 2.605 1.138c-.707-1.227-1.683-2.355-3.228-3.184.078.134.151.27.22.406.288.575.417 1.127.403 1.64zm8.451 9.335a5.423 5.423 0 0 1-.907 3.043c.506 1.09.848 2.262.989 3.482.15 1.31.233 2.558.204 3.702 1.32-1.172 3.036-1.901 4.959-2.023-2.475-2.033-4.158-4.909-4.588-8.103a6.859 6.859 0 0 1-.657-.101zm98.549 20.665c.791.255 1.558.58 2.286.964-1.054-2.581-1.664-5.875-5.654-7.301-6.788-2.428.522-7.578 6.569-8.115 5.559-.494 10.77 3.044 12.276 8.094a14.486 14.486 0 0 1 2.541-.465c7.18-.654 12.561 5.472 12.02 13.683-.542 8.211-6.801 14.338-13.98 13.684-4.43-.403-8.174-2.888-10.266-6.354-1.838 1.35-4.52 2.17-7.698 2.17-6.841 0-12.318-3.805-12.232-8.5.044-2.381 1.235-4.534 3.12-6.077-1.258-.894-2.012-2.098-1.98-3.423.066-2.761 2.352-5 5.105-5 2.752 0 6.106 2.239 7.49 5 .288.575.417 1.127.403 1.64zM36.62 20.718c-1.457-1.654-2.124-3.79-1.606-5.827.884-3.48 3.968-5.624 6.888-4.786 2.92.837 5.494 4.602 5.748 8.41.127 1.898-.576 3.382-1.815 4.25.232.221.451.455.656.698 2.32-2.472 5.24-3.64 7.917-2.82 3.86 1.184 6.179 5.357 5.785 9.878l.09.097c1.588 1.764 2.238 4.973 1.666 7.667 1.437 2.32 2.036 6.763 1.328 10.401-1.308 6.718-7.5 11.559-13.9 10.92-2.53 1.783-6.113 2.238-9.798.912-6.203-2.232-9.531-8.43-7.434-13.845 1.278-3.298 3.972-5.631 7.057-6.511-1.4.304-2.86.359-4.307.119-5.61-.93-9.73-2.76-8.468-7.975-2.084-.657-3.11-2.96-2.332-5.67.913-3.185 3.971-5.727 6.83-5.678 1.205.021 2.183.5 2.842 1.286.922-.64 1.882-1.162 2.853-1.526zm18.402 18.957c-1.995 1.556-4.342 2.499-6.629 2.49.221.184.436.375.644.575 2.213-.192 4.556-.546 6.557-2.559a9.573 9.573 0 0 1-.572-.506zm-15.137.317a9.818 9.818 0 0 1 3.98-.027 6.961 6.961 0 0 1-.81-1.363 12.43 12.43 0 0 1-3.17 1.39zm148.223 22.072a5.26 5.26 0 0 1-1.411-.526c-2.5-1.386-2.662-4.442-.36-6.825 2.302-2.384 6.195-3.193 8.696-1.808 1.804 1 2.39 2.869 1.713 4.728 3.317-.772 6.678-.614 8.936 1.113 4.636 3.547 5.151 9.781 1.15 13.924-4.001 4.143-11.003 4.627-15.64 1.08-1.047-.802-2.001-1.608-2.804-2.425a7.97 7.97 0 0 1-.675 2.886c3.583-.057 7.115 1.343 9.603 4.154a12.905 12.905 0 0 1 1.425 1.957c4.699 1.348 9.727 6.197 16.46 3.18 9.706-4.352 8.365 9.134 2.886 16.07-5.478 6.935-16.139 8.033-23.81 2.451a18.709 18.709 0 0 1-1.11-.872c-4.404 1.781-9.86.381-13.912-4.083a16.414 16.414 0 0 1-3.266-5.342c-1.527-.352-3.016-1.156-4.253-2.404-3.235-3.265-4.133-7.7-2.004-9.904.59-.611 1.399-1.036 2.344-1.276-2.27-2.848-1.83-8.057 1.13-12.05 3.152-4.251 8.766-4.742 12.54-1.098.086.084.17.168.253.254.254-.92.818-1.863 1.755-2.833.113-.118.232-.235.354-.351zm-23.971-17.287c.317 2.99-1.544 5.223-4.637 5.223a7.506 7.506 0 0 1-2.511-.457c-.189 4.643-2.798 7.718-5.989 6.933-3.314-.815-6-4.162-6-7.476 0-.212.011-.424.032-.636-.89.59-1.926.794-3.032.509-3.314-.854-6-4.379-6-7.873 0-3.494 2.686-7.02 6-7.873 1.208-.31 2.333-.04 3.275.682.55-2.585 1.892-4.63 3.712-5.817a18.609 18.609 0 0 1 .04-2.795c.092-.973.285-1.94.563-2.877-1.544-.936-2.59-2.743-2.59-4.82 0-.838.17-1.632.475-2.343a7.546 7.546 0 0 1-.88-2.157c-.88-3.866 2.21-7.36 6.905-7.802 4.694-.443 9.214 3.05 10.095 7.802l.005.026c5.522.692 12.36 3.086 12.74 7.134.09.954-.161 1.778-.675 2.521 1.194.154 2.376.319 3.335.319a6 6 0 0 1 6 6c0 2.993-4.361 6.166-7.647 6.752.277.86.389 1.787.305 2.748-.364 4.142-4.24 7.662-8.658 7.86-1.895.086-3.583-.513-4.863-1.583zm5.896-18.217c-2.596 1.265-5.65 2.594-8.474 4.411.827.897 1.477 1.884 1.898 2.91 1.615-2.073 4.134-3.365 6.858-3.242.412.019.813.066 1.203.14a22.397 22.397 0 0 1-1.485-4.219zM17.713 58.571c2.461-1.727 5.316-1.181 6.815 1.524.311.56.543 1.175.698 1.824.123-.092.253-.177.39-.252 2.174-1.205 5.238.167 6.845 3.066.865 1.56 1.13 3.245.853 4.655 1.883-.148 3.4.66 3.857 2.292.688 2.46-.454 5.397-2.552 6.56-.732.405-1.586.598-2.461.597-.368 2.51-1.908 4.955-4.108 6.174-2.596 1.44-6.15 1.194-8.604-.435-.211.251-.436.485-.675.698-2.954 2.645-7.508 1.635-10.172-2.256a8.744 8.744 0 0 1-1.208-2.611c-3.115-.065-6.528-1.697-8.578-4.343-2.738-3.534-2.427-8.3.694-10.643 2.144-1.61 5.256-1.3 8.05.503a9.026 9.026 0 0 1 .955-1.475c-2.597-.408-4.947-1.985-6.16-4.427-1.968-3.961-.484-8.543 3.315-10.233 3.8-1.69 8.757-.007 11.073 3.761.994 1.616 1.288 3.383.972 5.021zm7.465 11.436a7.275 7.275 0 0 1-.23 3.362 9.404 9.404 0 0 1 2.508-.393c.142-.25.312-.497.507-.738-1.022-.418-2.004-1.186-2.785-2.23zm157.584 58.739c-2.492 1.683-5.337 1.088-6.789-1.643a6.42 6.42 0 0 1-.018-.035c-3.896-.01-7.314-2.357-8.642-6.449-1.905-5.868-.328-12.284 3.523-14.331a6.464 6.464 0 0 1 2.24-.69c.584-1.348 1.46-2.415 2.58-3.01 3.002-1.597 7.819.161 10.92 3.93a8.628 8.628 0 0 1 2.415.352 4.533 4.533 0 0 1 1.728-1.104c3.666-1.341 8.807.475 11.482 4.057 2.23 2.985 2.329 6.788.469 9.297 3.94-.746 7.822.73 9.544 3.97 2.204 4.144.037 9.606-4.84 12.199-2.53 1.345-5.292 1.654-7.672 1.06a5.583 5.583 0 0 1 1.45 1.747c1.556 2.926.248 6.664-2.922 8.35-3.17 1.685-7 .679-8.556-2.247-1.022-1.922-.808-4.194.358-6.005-2.558-.468-4.988-2.047-6.386-4.411-.965-1.634-1.228-3.405-.884-5.037zm14.874-7.322c-1.284-.095-2.636-.558-3.928-1.343-.4 1.114-.956 2.118-1.644 2.948a8.59 8.59 0 0 1 3.066 1.17 10.936 10.936 0 0 1 2.506-2.775zm-96.685 49.092c-.86-4.567.99-8.15 4.276-8.103 2.685.038 5.343 1.691 6.718 3.967.737-1.636 2.05-2.626 3.762-2.583 3.42.086 6.831 2.916 7.617 6.32.786 3.406-1.038 7.444-4.075 9.021-1.426.74-2.934.51-4.253-.468.228.584.42 1.204.571 1.857.872 3.778.016 7.151-2.009 9.226.205 2.461-.96 5.16-2.894 7.228 1.709.952 3.094 2.269 3.838 3.805 1.728 3.569-.498 7.668-4.973 9.156-3.203 1.065-6.772.144-9.25-2.091a4.642 4.642 0 0 1-2.337 1.35c-2.69.62-5.426-1.275-6.11-4.235a5.853 5.853 0 0 1 .195-3.342 6.003 6.003 0 0 1-4.089-10.037c-2.434-.898-4.265-2.977-4.642-5.662-.577-4.118 2.408-8.42 6.668-9.607 1.828-.51 3.606-.306 5.095.45-.982-2.844.33-5.437 3.343-6.133a7.506 7.506 0 0 1 2.55-.12zm-2.999 28.081c.041-.074.083-.148.127-.22a6.366 6.366 0 0 1-.247-.258 6.03 6.03 0 0 1-.194.387c.105.027.21.057.314.091zm-1.05-6.9c.517-1.12 1.346-2.197 2.426-3.142a9.026 9.026 0 0 1-1.155-1.324 8.53 8.53 0 0 1-2.675 3.281c.523.32.998.72 1.404 1.186zm14.73-17.562c.175.126.345.26.512.402a13.463 13.463 0 0 1-.271-.81 8.7 8.7 0 0 1-.24.408zm-69.374-99.55c-.528-.52-.585-1.338-.051-2.193.603-.966 1.793-1.705 2.98-1.94-.016-.75.278-1.564.891-2.28 1.272-1.485 3.034-2.231 3.935-1.668.276.172.478.471.601.855.55.036 1.07.189 1.52.47 1.571.982 2.126 3.44 1.238 5.49a3.26 3.26 0 0 1-2.573 1.974c1.06.932 1.2 2.48.257 3.654-1.044 1.301-3.022 1.65-4.417.778-.649-.406-1.057-1.003-1.203-1.658a3.013 3.013 0 0 1-2.816.269c-1.579-.64-1.932-2.138-.789-3.345.135-.143.278-.278.427-.407zm4.379-.398c.105.257.166.557.18.884.335-.21.707-.362 1.091-.45a4.923 4.923 0 0 1-.915-.727 4.53 4.53 0 0 1-.356.293zm15.36 83.477c-.982-.481-1.733-1.444-1.94-2.664-.344-2.013.92-3.325 2.821-2.93.4.083.796.207 1.176.362.22-.86 1.102-1.432 2.438-1.432 1.618 0 3.415.84 4.508 2.01.32-.022.655-.008 1 .046 2.21.35 4 1.668 4 2.944 0 1.153-1.463 2.34-3.375 2.817.24.372.375.775.375 1.183 0 1.39-1.567 2.72-3.5 2.97-.957.124-1.824-.14-2.456-.666-.638.51-1.542.776-2.544.675-1.933-.197-3.5-1.69-3.5-3.334 0-.81.38-1.507.997-1.981zm3.694-.345c.397.163.76.381 1.076.642.376-.41.871-.71 1.44-.857a2.838 2.838 0 0 1-.1-.295 6.822 6.822 0 0 1-1.358-.524c-.224.387-.589.744-1.058 1.034zm-.816-19.542c.63-.36 1.348-.256 1.894.372.415.478.653 1.17.7 1.905.358.164.664.444.882.837.686 1.233.591 2.798-.21 3.496-.75.65-2.16.586-3.26-.116-.14.28-.332.532-.569.738-.874.76-2.298.811-3.18.115-.396-.314-.564-.77-.521-1.27-.602.036-1.153-.207-1.484-.726-.602-.94-.25-2.432.784-3.332.27-.233.558-.404.848-.512-.056-.683.269-1.521.95-2.27 1.138-1.248 2.436-1.42 2.9-.384.155.345.242.741.266 1.147zm-1.353 2.783c-.119.05-.243.089-.37.117.02.178.02.362 0 .549.136-.028.27-.043.4-.045a4.272 4.272 0 0 1-.03-.62zm86.517-27.797c-1.12.281-2.334-.059-3.167-.817.184.59.242 1.174.187 1.72l.059.005a3.98 3.98 0 0 1 .012-.006c.916-.427 2.08-.541 3.064-.36a.722.722 0 0 1-.155-.542zm1.989-1.818c.674-.084 1.352.17 1.755.723.604.83.227 1.73-.842 2.01-.484.126-1 .164-1.459.123l.036.025c1.032.737.742 1.86-.648 2.509-.735.342-1.63.484-2.463.432-.358.441-.9.805-1.578 1.012-1.6.488-3.189.26-3.548-.511a.969.969 0 0 1-.08-.47c-1.665-.006-3.22-.809-3.826-2.108-.783-1.68.09-4.043 1.952-5.279 1.51-1.003 3.357-.632 4.569.764-.189-1.246.532-2.441 1.845-2.875 1.585-.522 3.433.263 4.128 1.754.297.637.336 1.3.159 1.89z" id="i"/><path d="M156.13 168.57a5.948 5.948 0 0 1-.286-1.929c.044-2.381 1.235-4.534 3.12-6.077-1.258-.894-2.012-2.098-1.98-3.423.066-2.761 2.352-5 5.105-5 .915 0 1.896.248 2.85.68.564-2.592 5.892-5.362 10.561-5.77a13.808 13.808 0 0 1 7.543 1.505c.282-.038.572-.057.871-.057 4.142 0 7.418 3.725 7.317 8.321-.053 2.417-.788 4.594-1.918 6.114-1.494 3.54-5.264 5.717-10.076 5.297a7.011 7.011 0 0 1-.804-.115 5.423 5.423 0 0 1-.907 3.043c.506 1.09.848 2.262.989 3.482.669 5.8-.005 10.348-5.765 10.348-1.742 0-3.749-.416-5.72-1.156-.847.728-2.073 1.167-3.54 1.167-3.232 0-6.438-2.13-7.281-4.797-2.46-.71-4.209-2.666-4.209-5.02 0-2.33 1.712-4.939 4.13-6.612zm13.23-11.835c.077.134.15.27.219.406.288.575.417 1.127.403 1.64a14.21 14.21 0 0 1 2.605 1.138c-.707-1.227-1.683-2.355-3.228-3.184zM88.457 15.931a4.726 4.726 0 0 1-.606 2.818c-.336.582-.806 1.113-1.376 1.579a4.95 4.95 0 0 1-.13.672c-.74 2.762-3.666 3.657-6.536 2a7.651 7.651 0 0 1-.913-.62 9.66 9.66 0 0 1-.596-.088 6.387 6.387 0 0 1-.607-.14 5.106 5.106 0 0 1-2.616 3.608c-2.43 1.293-6.442.89-8.96-.898-1.033-.734-1.48-1.68-1.391-2.676-2.647.579-6.677.047-9.774-1.399-5.43-2.534-8.558-8.353-7.797-13.827-1.688-3.688-1.247-8.436 1.623-12.729 4.575-6.84 13.058-9.016 18.95-4.86 2.843 2.006 5.198 4.472 6.432 7.128.13-.447.288-.888.475-1.32 2.32-5.357 5.179-8.96 10.167-6.08C89.79-8.02 97.595-9.209 94.983.896c-1.088 4.206-3.094 7.003-5.426 8.627.62 2 .509 3.98-.48 5.624-.171.283-.379.544-.619.784zm-14.718.908A12.53 12.53 0 0 1 71.95 16c-2.713-1.566-3.488-3.725-3.417-6.154a23.197 23.197 0 0 1-4.585 2.141c.14 1.52.679 3.088 2.045 4.678.634.738 1.05 1.4 1.283 1.988.308-.21.642-.411 1.002-.602 1.876-.998 3.83-1.389 5.462-1.212zM7.978 90.256l.091.142c1.462.076 2.758.58 3.724 1.55 1.394 1.399 2.005 3.353 1.877 5.414 1.39-.28 2.658-.029 3.497.823 1.745 1.77 1.73 4.687-.036 6.515-.72.746-1.745 1.325-2.889 1.695 1.492 1.707-.236 7.105-3.06 10.542-4.024 4.901-11 6.353-15.581 3.243-4.581-3.11-4.438-9.03.32-13.224a6.78 6.78 0 0 1 .673-.526c-1.14-.903-1.727-2.2-1.778-3.696a9.37 9.37 0 0 1-1.831-1.082c-4.02-3.045-6.424-6.21-2.828-9.933 1.745-1.808 4.583-3.414 7.501-4.242a5.449 5.449 0 0 1 1.028-1.643c2.232-2.45 5.616-2.918 7.558-1.042 1.234 1.191 1.837 3.282 1.734 5.464zm.039 15.754a13.564 13.564 0 0 1-3.148 1.37c1.54.39 3.259.426 5.312-.598a7.087 7.087 0 0 1-1.09-.234 3.249 3.249 0 0 1-1.074-.538zm63.73 77.195c.252-.7.633-1.348 1.146-1.912 2.415-2.658 6.144-3.102 8.33-.992 2.184 2.11 2.689 6.643 1.126 10.124-.081.18-.168.354-.26.518.72 1.454.976 3.135.78 4.841.32.163.612.374.869.634 1.94 1.966 1.963 5.166.05 7.146-1.912 1.98-5.852 2.837-8.8 1.914a4.527 4.527 0 0 1-.194-.065c-3.286 1.227-6.94 1.21-9.65-.31-2.24-1.255-3.177-3.502-2.859-6.069a23.532 23.532 0 0 1-1.897-1.709c-.096 2.304-1.206 4.57-3.301 6.24-4.138 3.297-9.752 3.788-12.54 1.097-2.787-2.692-2.492-8.32.66-12.57 3.15-4.251 8.765-4.742 12.54-1.098.085.084.17.168.252.254.164-.593.455-1.194.892-1.806-.479-1.452-.007-3.224 1.446-4.73 2.302-2.383 6.195-3.192 8.696-1.807.277.154.525.327.744.518a15.878 15.878 0 0 1 1.97-.218zm-28.488-40.5c.029.56-.143 1.166-.485 1.696.611.304 1.34.653 1.978.099.522-.454.987-.897 1.393-1.226a1.847 1.847 0 0 1-.162-.511c-.801.362-1.815.354-2.724-.057zm-1.423-1.667c-.208-1.035.209-2.342 1.224-3.475 1.58-1.764 3.445-1.95 4.167-.417.402.854.539 1.91.429 2.877 1.08-.529 2.23-.263 2.79.747.686 1.234.592 2.799-.21 3.496-.549.477-1.452.57-2.329.31a3.453 3.453 0 0 1-1.122 1.985c-1.016.883-5.074 1.521-5.33-1.013-.864.374-1.766.19-2.233-.54-.601-.941-.25-2.433.785-3.332.578-.503 1.247-.714 1.83-.638zm80.521-98.313c5.016-4.426 9.337 6.078 7.211 8.892-2.126 2.814-12.227-4.466-7.21-8.892zm2.555 11.523c2.404-2.04 7.565 2.044 5.47 3.994-2.097 1.95-7.875-1.953-5.47-3.994z" id="k"/><path d="M15.102 130.78a7.977 7.977 0 0 1-1.54-.957c-1.443 1.033-3.203 1.3-4.644.533a3.81 3.81 0 0 1-1.412-1.305l-.033.062c-2.136 4.018-5.363 5.795-7.207 3.97-1.844-1.827-2.175-5.496-.74-8.196 1.436-2.7 4.663-4.477 7.208-3.97.75.15 1.308.575 1.667 1.202 1.555-1.77 3.87-2.438 5.681-1.475.206.11.398.236.576.378 1.906-1.216 4.308-1.77 6.44-1.396 1.612-1.83 4.36-2.466 7.033-1.383 1.882.763 3.263 2.384 3.938 4.349 1.09-.499 2.274-.54 3.278-.007 1.95 1.037 2.481 3.855 1.185 6.293-.808 1.518-2.133 2.532-3.49 2.83.488 1.718.249 3.656-.822 5.333-1.99 3.115-6.231 4.406-9.473 2.883a5.78 5.78 0 0 1-.415-.215c-.824.706-1.837 1.015-2.89.835-.273.75-.615 1.52-1.029 2.298-2.902 5.458-7.436 7.786-10.127 5.201-2.691-2.585-3.296-7.646-1.35-11.304 1.578-2.97 4.862-5.063 7.993-5.326.05-.219.107-.43.173-.633zM148.157 65.04c-.913-.905-.68-2.228.7-3.23 1.126-.818 2.726-1.212 4.152-1.111.378-.834 1.112-1.609 2.138-2.154 2.216-1.177 4.621-1.295 5.37-.263.38.522.349 1.356-.009 2.279a4.457 4.457 0 0 1 1.655 1.361c1.498 2.062.938 5.481-1.25 7.638-.905.893-2.023 1.326-3.166 1.328.009 1.228-.654 2.413-1.885 3.102-1.941 1.087-4.56.53-5.85-1.245-.736-1.013-.879-2.204-.505-3.242a3.025 3.025 0 0 1-2.41-.853c-1.224-1.184-.99-2.705.522-3.396.175-.08.355-.152.538-.214zm4.193 1.614a2.841 2.841 0 0 1-.123.498c.096-.025.193-.047.291-.065a6.193 6.193 0 0 1-.168-.433zm-17.145 96.047a4.93 4.93 0 0 1-.438-.17c-2.264-1.01-2.36-3.237-.214-4.975 2.146-1.738 5.721-2.328 7.985-1.319.628.28 1.09.654 1.382 1.085-.58-2.043.423-4.318 2.703-5.63 2.91-1.672 6.254-1.81 7.47-.309.863 1.065.697 3.005-.272 4.934.535.334 1.01.745 1.403 1.229 2.085 2.575 1.644 7.01-.985 9.907a5.69 5.69 0 0 1-2.476 1.62c.077 1.664-.744 3.307-2.36 4.325-2.59 1.63-6.237 1.038-8.15-1.323-.806-.996-1.174-2.148-1.136-3.27a4.963 4.963 0 0 1-4.747-.973c-1.85-1.59-1.853-3.736-.165-5.131z" id="l"/><path d="M72.005 28.66c-.092-1.55 1.098-2.66 3.11-2.66 1.652 0 3.453.747 4.802 1.871 1.071-.72 2.506-1.036 4.083-.786 3.314.525 6 2.502 6 4.415 0 .587-.253 1.18-.699 1.735.447.869.699 1.81.699 2.765 0 3.243-2.91 6.346-6.5 6.93-1.81.294-3.448-.35-4.626-1.625-.54 2.39-2.74 3.968-5.374 3.656-3.038-.36-5.5-3.097-5.5-6.113 0-1.246.42-2.345 1.129-3.18A4.86 4.86 0 0 1 66.08 32c-.49-2.685 1.315-4.433 4.032-3.906.646.125 1.286.32 1.893.566zm3.859 4.605c-.156.413-.44.811-.83 1.171.73.297 1.4.733 1.97 1.27.02-.678.11-1.323.26-1.926a8.013 8.013 0 0 1-1.4-.515zm81.941 98.421c-.85-2.062.48-3.686 3.11-3.686 2.443 0 5.191 1.403 6.57 3.257 1.544-.864 3.168-1.267 4.515-1.016 2.46.46 3.403 2.521 3.763 4.994a9.091 9.091 0 0 1 3.222-.085c4.418.642 7.946 7.161 7.946 9.5 0 2.338-3.528.651-7.946 1.293-2.263.329-4.306-.144-5.761-1.171-1.862 1.682-4.346 2.918-6.416 3.305-2.552.477-3.837-.968-4.415-3.575a3.851 3.851 0 0 1-1.408.086c-2.21-.262-4-2.252-4-4.445 0-1.185.522-2.187 1.35-2.816a5.466 5.466 0 0 1-.05.01c-1.902.396-3.722-.916-4.065-2.929-.344-2.013.92-3.325 2.822-2.93.257.054.512.124.763.208zm3.348 3.306c-.07.614-.506 1.21-1.184 1.662.324-.046.665-.05 1.016-.009.51.06.998.214 1.447.44.162-.466.365-.92.6-1.356a9.32 9.32 0 0 1-1.879-.737zM24.862 38.95c2.097-.527 4.365.592 5.573 2.973 1.518 2.992 1.481 6.34-.082 7.476-.598.434-1.433.556-2.37.41-.434 1.146-1.136 2.137-2.08 2.823-2.067 1.501-5.16 1.446-7.731.068a5.84 5.84 0 0 1-1.407 1.464c-2.457 1.786-5.66 1.068-7.151-1.602-1.493-2.67-.71-6.283 1.747-8.068 1.273-.925 2.746-1.179 4.078-.836.542-.863 1.29-1.666 2.235-2.353a9.21 9.21 0 0 1 1.213-.747c-1.291-2.238-1.54-5.422-.51-7.44 1.127-2.209 3.356-2.187 4.98.047 1.142 1.572 1.68 3.821 1.505 5.785z" id="m"/><path d="M17.985 96.588a4.95 4.95 0 0 1-1.903-3.088c-.499-2.746 1.335-4.535 4.097-3.996.938.183 1.862.51 2.693.928.538-.276 1.228-.432 2.042-.432.104 0 .208.003.313.008.732-2.132 3.032-3.405 5.758-2.969 3.313.53 6 2.528 6 4.461 0 1.66-1.982 3.368-4.64 4.153a2.317 2.317 0 0 1-.038.303c2.611.533 4.678 2.666 4.678 4.892 0 2.316-2.239 4.532-5 4.95-2.484.374-4.545-1.38-4.934-4.029-.96.704-2.206 1.05-3.566.887-3.009-.359-5.453-3.065-5.5-6.068zm19.821-2.272c2.405-2.04 7.566 2.044 5.47 3.994-2.096 1.95-7.874-1.954-5.47-3.994z" id="n"/><path d="M108.51 61.958c.814-1.16 2.519-1.958 4.49-1.958 2.761 0 5 1.567 5 3.5 0 .86-.443 1.647-1.177 2.256.722.55 1.177 1.351 1.177 2.244 0 .84-.403 1.6-1.053 2.145a18.09 18.09 0 0 1 2.053 8.39V85h10v42h-9c0 3.314-2.015 6-4.5 6-1.564 0-2.941-1.063-3.748-2.677-.91.426-2.035.677-3.252.677-3.038 0-5.5-1.567-5.5-3.5 0-.17.019-.337.056-.5H71V94.54c-.51-.454-.843-1.198-.843-2.04 0-.18.015-.356.044-.525-1.717-.192-3.044-1.45-3.044-2.975 0-1.657 1.567-3 3.5-3 .116 0 .23.005.343.014V85h4.582A3.807 3.807 0 0 1 75 83c0-2.52 2.611-4.605 6.006-4.95.13-4.929 2.232-9.38 5.568-12.63C90.01 62.071 94.756 60 100 60c3.06 0 5.95.706 8.51 1.958zM91 85h18v-6.466c0-2.34-1.002-4.475-2.625-6.022C104.749 70.962 102.5 70 100 70c-2.5 0-4.749.961-6.375 2.512C92.002 74.059 91 76.193 91 78.534V85z" id="o"/><path d="M118 105V78.534C118 68.85 109.941 61 100 61s-18 7.85-18 17.534V105h36zm-28-8V78.534C90 73.316 94.43 69 100 69s10 4.316 10 9.534V97H90z" id="p"/><path d="M82 84h8v2h-8v-2zm28 0h8v2h-8v-2z" id="r"/><path id="s" d="M72 86h56v38H72z"/><path d="M97 102.803V98a3 3 0 0 1 6 0v4.803a6 6 0 1 1-6 0z" id="t"/><path d="M98.805 189.141c-2.031-1.477-2.957-2.284-2.777-2.422.18-.138 1.614.279 4.303 1.25l.422 3.365 1.298-6.443c-.473-4.674-.658-6.97-.556-6.891.036.028.632 1.8 1.787 5.315l5.718-1.827-6.161 4.018-.04 6.563c5.943-2.24 8.917-3.188 8.921-2.843.004.344-2.907 1.706-8.734 4.086l3.014 7.233-4.824-5.93-6.266 2.676 4.778-4.252-.883-3.898zm-68.64-32.023c-1.052-3.468-1.469-5.175-1.25-5.118.22.057 1.257 1.923 3.114 5.6l-.68 5.54 4.816-2.022c4-2.796 6-4.13 6-4 0 .046-1.333 1.38-4 4l7 2-9-1-4.136 3.087c5.424 3.305 8.002 5.065 7.733 5.28-.27.216-3.135-1.24-8.597-4.367l-1.815 10.77-.816.11.816-9.604-.327-1.9-5.966-3.29 6.293 1.147.815-6.233zm163.064-39.075l4.271-3.123-3.502 4.888-4.786 2.875 10.79 4.028-.788.616-11.21-2.837c.736 6.31.936 9.425.6 9.345-.335-.08-.952-3.234-1.851-9.463l-6.605 2.2-.589-.574 5.071-2.271c-6.286-1.253-9.242-2.002-8.868-2.248.173-.114.984-.117 2.433-.01.486.036-4.472-6.342 1.673.145.673.71 2.693.94 6.058.686l-1.08-6.727 2.97 5.665 5.413-3.195zM124.98 10.621c5.55-.675 8.265-.918 8.144-.727-.122.191-3.181.975-9.178 2.35l-5.06-.359 2.694 11.197c1.423 4.669 2.073 6.983 1.95 6.943-.044-.014-.9-1.695-2.568-5.04l-4.065 6.039 3.732-8.25-3.917-10.88c-4.82 4.138-7.29 6.046-7.411 5.723-.122-.322 2.148-2.598 6.81-6.826l-9.682-5.055.147-.81 8.882 3.744C112.98 2.758 111.95-.112 112.362.06c.19.08.647.75 1.369 2.012.242.423 2.757-7.254.815 1.468-.212.955.727 2.757 2.819 5.405l4.973-4.657-1.427-4.485c1.612 2.828 3.278 3.393 4.999 1.695.3-.295-1.903 2.511-6.608 8.42l5.676.702zM71.572 1.96l1.864.48-.68 5.542 9.816-.022c4-2.797 6-4.13 6-4 0 .046-1.333 1.379-4 4l4 4-6-3-9.136 1.086c5.425 3.305 8.003 5.065 7.733 5.28-.269.216-3.134-1.24-8.597-4.366l-1.815 6.77-.816.11.816-5.605c-4.857 4.183-7.268 6.05-7.231 5.604.017-.206.514-.847 1.49-1.923.328-.36-7.75-.38 1.145-1.23.974-.092 2.397-1.543 4.27-4.35l1.141-8.376z" id="u"/></defs>tile = t grain = e dust = j<g fill="none" fill-rule="evenodd"><use fill="#95AD58" xlink:href="#d"/><use fill="url(#e)" style="mix-blend-mode:color-burn" xlink:href="#d"/><use fill="#AFBE60" xlink:href="#f"/><use fill-opacity=".75" fill="url(#e)" style="mix-blend-mode:multiply" xlink:href="#f"/><use fill="#AFBE60" style="mix-blend-mode:color" xlink:href="#f"/><use fill="#DFC468" xlink:href="#g"/><use fill="url(#e)" style="mix-blend-mode:color-burn" xlink:href="#g"/><path d="M161.163-.033C169.658 12 177.736 31.544 174.326 39.37c-1.285 2.948-8.798 16.1-8.141 14.892C158.49 68.42 154.609 81.967 154.609 101c0 15.35-7.041 29.224-19.079 39.742-10.721 9.37-24.396 14.964-35.278 14.868-26.878-.24-53.617 18.054-68.27 44.39h13.087c12.577-22.606 32.73-32.59 55.076-32.39 13.979.123 30.443-6.613 43.281-17.832C157.944 137.093 166.61 120.02 166.61 101c0-16.894 3.33-28.514 10.12-41.007.671-1.237 1.37-2.477 2.268-4.039.15-.26 1.783-3.085 2.25-3.902 1.842-3.225 3.051-5.527 4.08-7.889 5.062-11.616 2.958-29.294-9.342-44.196h-14.822z" fill="#9FD3E1" fill-rule="nonzero"/><path d="M174.222 11.226a1 1 0 0 1 1.693-1.065c8.216 13.048 9.202 21.968 4.828 32.005-1.182 2.712-2.232 4.636-5.346 10.023a1 1 0 1 1-1.731-1.001c3.073-5.316 4.104-7.205 5.244-9.821 4.098-9.405 3.189-17.632-4.688-30.14zm-13.33 73.072a1 1 0 1 1 1.974.322c-.828 5.07-1.257 10.502-1.257 16.38 0 15.444-6.212 29.524-17.07 40.817-12.383 12.88-29.93 20.92-44.35 20.794a1 1 0 0 1 .018-2c13.846.121 30.874-7.681 42.89-20.18 10.515-10.936 16.512-24.529 16.512-39.431 0-5.985.438-11.523 1.283-16.702zm1.88 18.702a1 1 0 1 1 2 0c0 15.444-6.212 29.524-17.07 40.817-5.821 6.055-12.808 11.095-20.264 14.728a1 1 0 0 1-.876-1.798c7.247-3.531 14.042-8.433 19.698-14.316 10.515-10.936 16.512-24.529 16.512-39.431zm-19.216 31.37a1 1 0 1 1 1.554 1.26 67.2 67.2 0 0 1-3.776 4.273 69.83 69.83 0 0 1-3.666 3.543 1 1 0 0 1-1.336-1.488 67.83 67.83 0 0 0 3.56-3.441 65.2 65.2 0 0 0 3.664-4.146zm-84.29 40.364a1 1 0 1 1 1.225 1.581c-8.057 6.242-14.99 14.41-20.42 24.171a1 1 0 0 1-1.749-.972c5.56-9.994 12.67-18.37 20.944-24.78z" fill="#FFF" fill-rule="nonzero"/><use fill="#C5995D" xlink:href="#h"/><use fill="url(#e)" style="mix-blend-mode:color-burn" xlink:href="#h"/><path d="M112.653 152.287c1.27 3.606-10.02 4.873-11.336 1.601-1.317-3.271 10.065-5.207 11.336-1.601zM63.855 60.649c2.376 2.995-7.887 7.869-10.197 5.204-2.31-2.664 7.82-8.2 10.197-5.204zm36.372 93.893c0 1.848-6.491.193-5.345-1.141s5.345-.707 5.345 1.14zM66.913 65.536c1.086 1.495-5.138 3.971-4.995 2.218.142-1.753 3.909-3.713 4.995-2.218z" fill="#EA8F4E"/><use fill="#698700" xlink:href="#i"/><use fill="url(#j)" style="mix-blend-mode:multiply" xlink:href="#i"/><use fill="#527D93" xlink:href="#k"/><use fill="url(#j)" style="mix-blend-mode:multiply" xlink:href="#k"/><use fill="#788901" xlink:href="#l"/><use fill="url(#j)" style="mix-blend-mode:overlay" xlink:href="#l"/><use fill="#4A9F7F" xlink:href="#m"/><use fill="url(#j)" style="mix-blend-mode:overlay" xlink:href="#m"/><g><use fill="#984264" xlink:href="#n"/><use fill="url(#j)" style="mix-blend-mode:multiply" xlink:href="#n"/></g><g><use fill="#95AD58" xlink:href="#o"/><use fill="url(#e)" style="mix-blend-mode:color-burn" xlink:href="#o"/></g><g><use fill="#EAF6F7" xlink:href="#p"/><use fill-opacity=".25" fill="url(#q)" style="mix-blend-mode:multiply" xlink:href="#p"/></g><g><use fill="#D5E7E8" xlink:href="#r"/><use fill="url(#q)" style="mix-blend-mode:multiply" xlink:href="#r"/></g><g><use fill="#FFF" xlink:href="#s"/><use fill-opacity=".15" fill="url(#q)" xlink:href="#s"/></g><g><use fill="#2D2618" xlink:href="#t"/><use fill-opacity=".33" fill="url(#q)" xlink:href="#t"/></g><path d="M142.727 129.212c1.849 1.85-6.222 10.513-8.384 9.74-2.162-.774 6.536-11.589 8.384-9.74zm7.8-36.108c2.611.137 2.32 5.485.197 6.357-2.124.872-2.808-6.495-.197-6.357zm-17.709 47.96c1.232.554-4.148 3.153-5.59 2.921-1.44-.232 4.358-3.476 5.59-2.921z" fill="#81C8C6"/><g><use fill="#4B2C04" xlink:href="#u"/><use fill="url(#j)" style="mix-blend-mode:color-burn" xlink:href="#u"/></g></g></svg>