<svg width="200" height="200" xmlns="http://www.w3.org/2000/svg" xmlns:xlink="http://www.w3.org/1999/xlink"><defs><pattern id="g" width="16" height="16" x="0" y="0" patternUnits="userSpaceOnUse"><use xlink:href="#a"/></pattern><image id="a" width="16" height="16" xlink:href="./textures/tile.png"/><pattern id="e" width="128" height="128" x="0" y="0" patternUnits="userSpaceOnUse"><use xlink:href="#b"/></pattern><image id="b" width="128" height="128" xlink:href="./textures/grain.png"/><pattern id="i" width="128" height="128" x="0" y="0" patternUnits="userSpaceOnUse"><use xlink:href="#c"/></pattern><image id="c" width="128" height="128" xlink:href="./textures/dust.png"/><path id="d" d="M50-52h102v206H50z"/><path d="M172.183-8.264c-7.837 0-14.19 9.849-14.19 22 0 8.084 2.565 20.046 13.523 22.002.284.05.584.099.807.258.26.186.364.485.461.765.827 2.383 2.106 4.648 3.771 6.68-3.297 1.235-5.884 3.368-7.845 5.934-.395.517-3.82 5.76-2.739 5.957-2.342-.425-4.57 1.322-6.958 1.197-.934-.048-1.816-.383-2.74-.505-2.096-.277-4.219.578-5.76 1.833-1.543 1.254-2.606 2.875-3.645 4.468-1.134 1.74-2.279 3.502-2.9 5.425-.207.639-.36 1.303-.752 1.873-.397.577-1.01 1.016-1.544 1.504-2.013 1.843-2.908 4.55-2.324 7.032-.105-.447-5.164 2.485-5.44 2.479-1.907-.033-3.269-2.296-5.653-2.296-3.744 0-6.779 3.184-6.779 7.11 0 2.376-.04 1.652-2.335 2.63-1.646.7-2.973 1.962-3.416 3.522-1.617.57-3.137-.851-4.5-1.793-3.437-2.374-7.182-1.353-10.58.257-.828.392-.9.924-1.78 1.059-.882.134-2.684-.615-3.698-.668-2.62-.134-11.292.387-13.566 1.524-.23.116-.48.242-.746.219-.276-.022-.497-.197-.697-.363-1.56-1.298-3.399-2.561-4.123-4.395-1.34-3.436-6.284-5.445-10.205-4.146-1.28-2.42-3.87-4.293-6.855-4.956 1.262-4.841-1.842-10.264-7.062-12.34.84-2.764.002-5.865-2.168-8.022-1.982-1.97-.975-2.585-.974-4.922 0-4.81-5.233-9.737-10.904-6.75-1.012-2.794-3.245-5.245-6.15-6.754-.44-.23-.909-.445-1.217-.8-.317-.363-.427-.825-.545-1.268-2.364-8.883-11.448-16.354-22.3-16.354h-23.34v79.925h219.303V-8.264h-31.435z" id="f"/><path id="h" d="M0 100h200v100H0z"/><path id="j" d="M0 102h200v10H0z"/><path id="k" d="M0 100l200 .054v4.446L0 102z"/><path d="M53.423 74.25c.313.162.605.343.856.56 1.171 1.008.743 2.614-1 3.048-.947.237-1.976.133-2.957.006-.265-.035-.533-.07-.8-.056-.25.013-.493.07-.738.11-1.093.174-2.28-.025-3.177-.53.143.08-1.038.517-1.156.534-.47.07-.984.001-1.405-.17-1.004-.408-1.359-1.365-.725-2.102.311-.36.836-.61 1.4-.666.078-.008.163-.014.221-.055.066-.048.073-.125.08-.193.205-2.605 4.833-3.699 7.01-1.722.124.113.24.234.382.334.18.126.398.213.615.3.472.186.955.375 1.394.601zm-11.665-3.602c.377.378 1 .533 1.215 1.036.204.475.036 1.03-.462 1.378-.533.372-1.394.468-2.057.23-.153-.055-.303-.128-.474-.135-.224-.009-.42.097-.602.194-.842.45-1.918.815-2.907.57-.525-.129-.96-.417-1.496-.524-.938-.187-1.865.193-2.795-.1-.552-.174-1-.555-1.047-.992-.046-.43.281-.83.597-1.196.541-.628 1.201-1.317 2.206-1.437.731-.087 1.09-.806 1.697-1.125A4.97 4.97 0 0 1 37.978 68c1.376.024 2.714.667 3.222 1.599.152.277.232.575.4.849.044.073.098.14.158.2zm-9.083 6.25c.25.18.613.276.883.442.472.29.582.797.252 1.16-.33.363-1.066.547-1.685.42-.308-.063-.59-.193-.913-.2-.332-.007-.632.118-.949.184-.707.147-1.47-.007-2.213-.01-.555-.001-1.102.082-1.655.103-1.19.045-2.395-.397-2.395-1.245 0-.823 1.365-1.358 2.387-1.668.89-.27 1.426-.84 2.417-1.023.994-.182 2.072.058 2.79.524.58.376.55.927 1.081 1.313zm19.912 4.887c1.303-.095 1.927 1.402.9 1.923-.317.16-.708.219-1.09.253-.878.08-1.792.048-2.608-.2-.866-.262-.877.212-1.654.232a1.165 1.165 0 0 1-1.09-.642c-.278-.582.804-1.144 1.259-1.542.951-.837 2.891-1.267 3.74-.071.028.038.058.08.114.095.045.011.093 0 .14-.008a2.4 2.4 0 0 1 .29-.04zm-23.51 1.459c.078.06.185.087.283.126.602.236.895 1.026.36 1.434a.961.961 0 0 1-.847.133c-.226-.073-.416-.231-.656-.26-.197-.023-.391.046-.58.103-.957.29-3.637.517-3.637-.844 0-1.066 1.075-.777 1.726-1.207.205-.135.368-.315.572-.45.43-.286 1.034-.353 1.545-.196.497.153.893.505 1.083.926.034.075.063.154.126.214l.025.02z" id="l"/><path d="M49.581 77.057c-.559 1.95-3.354 3.698-8.004 5.17.26 1.591.598 3.293 1.389 5.374 3.846-1.432 7.033-4.938 7.033-4.938l.04.447s-3.43 3.766-6.7 5.438c.184.432.403.843.625 1.305 1.744 3.607 5.482 3.58 6.035 10.147h-1.28c0-3.186-3.72-1.328-3.72-3.186 0-1.34-.527-1.987-1.943-2.246-1.215-1.887-2.642-3.615-2.642-6.774 0 5.525 3.517 6.945 3.517 12.206h-1.817c0-5.261-5.983-6.656-5.983-12.18 0 3.108 1.236 4.88 2.341 6.738-.629.222-1.694.708-2.473 1.46C34.734 97.24 36 100 33 100h-1.43c3 0 1.735-2.76 3-3.982.387-.375.525-.7.674-1.16-.93.305-1.74.826-2.244 1.16-1.842 1.222-1.14 3.62-4.929 3.982 5.41-5.097 4.25-7.063 6.34-10.48-3.51-1.551-6.79-5.122-6.79-5.122l.072-.28s3.642 3.163 7.197 4.675c.23-.322.485-.653.784-1.008a10.58 10.58 0 0 0 1.727-2.872c-4.78-1.515-8.238-4.494-8.803-6.466l.44-.615c.582 2.03 4.471 5.061 8.876 5.85.819-3.147.236-6.82-1.028-10.462L38.37 73c2.326 2.938 2.602 5.407 3.042 8.312 4.015-.917 7.359-2.87 7.906-4.78l.201.774.061-.249z" id="m"/><path d="M168 108c0-8.22-.748-22.486-1.999-25.675-.392-1 2.869-2.484 3.507-3.217.545-.626.981-1.358 1.8-1.755 1.357-.659 3.527.23 4.692-.556.171-.116.26-.403 0-.403-2 0-4.841-.618-6 .095-3.992 2.454-7.171 3.107-7.171 3.107s.372-2.153.171-3.415c-.077-.485 2.342-1.123 2.005-1.559-.513-.664-3.898-.595-4.727-.62-.161-.006-.357.005-.428.12-.05.079-.014.175.029.256.182.341.47.641.685.97 1.556 2.382-1.595 5.176-4.564 3.417-1-.593-3.649-3.016-5.102-3.055-.908-.025 1.349 1.056 1.858 1.567.515.515 1.274.875 1.177 1.57-2.776-.145-5.63-.789-8.248-1.513-.855-.236-1.742-.5-2.641-.415.504-.048 2.149.853 2.725 1.016 1.172.331 2.39.548 3.59.804 2.116.45 4.153.887 5.779 2.108.383.287.773.582 1.016.953 1.004 1.535-2.189 26.2-1.154 26.2h13z" id="n"/><path d="M177.026 74.02c.257.032-.935-2.144-1.13-2.327-.759-.707-1.803-1.123-2.93-1.38-2.365-.538-5.35-.413-7.475.61-.209.1-.422.211-.667.235-.24.025-.48-.04-.723-.056-.597-.04-1.193.209-1.782.12-1.2-.18-1.998-.684-3.319-.684-2.274 0-4.457 1.127-5.05 2.85-1.959-.498-4.087-.68-6.133-.453-1.03.114-2.182.305-3.069.732-.635.305-1.157.808-1.2 1.382-.006.085-.003.174-.055.25-.082.116-.265.16-.423.214-1.248.427-1.103 1.446-.082 2.01.947.524 2.327.533 3.284.02.25-.133.474-.299.757-.38.825-.24 2.081.149 3.015.028 1.16-.15 2.253-.509 3.41-.674 2.203-.316 4.53.098 6.692-.362 2.453-.523 3.1-.639 5.023.692.89.613 2.03 1.01 3.218 1.118 1.763.16 3.476-.278 5.223-.359 1.624-.075 3.117.66 4.663.13.932-.322 1.754-.993 1.73-1.777-.017-.543-.444-1.044-1.013-1.367-.569-.321-1.267-.483-1.964-.573" id="o"/><path d="M102.355 108.978c.153-.043.145-8.978.145-15.478 0-8.5-.126-12.162 2-15.5 2.82-4.427 6.795-7.133 12.027-9.413a102.805 102.805 0 0 1 10.18-3.805 107.208 107.208 0 0 1 5.533-1.582c1.657-.426 3.435-.572 4.57-1.72.312-.315 1.928-2.062 1.502-2.519-.774-.83-1.523 1.9-2.295 2.205-.21.082-2.285 1.176-2.438.669-.216-.713 1-3.516.353-3.579-1.245-.121-1.434 2.746-1.51 3.467-.005.062-.04.215-.09.264-.05.05-.236.038-.303.064-1.99.776-7.456 2.214-8.836 1.937-2.776-.555-4.78-4.862-5.987-4.275-1.207.586 3.614 4.746 4.403 5.384-8.036 2.626-14.214 4.652-19.804 10.115.057-2.249-1.797-5.607.166-7.595 1.962-1.989 7.43-1.435 9.52-3.098 1.299-1.034.643-1.924.36-2.816-.283-.892-1.622-2.743-2.387-2.843-.764-.1.503 1.936.559 2.096.317.9.68 1.721.025 2.544-.656.823-1.36.987-2.791 1.334-.692.167-5.451 1.301-6.021.687-.57-.616.665-1.142 1.395-1.337 1.6-.43 5.136-.135 4.536-2.262-.178-.63-.807-1.397-1.401-1.88-.19-.154-.588-1.173-1.125-.714-.537.457 2.027 2.337.055 3.178-1.466.624-3.974.126-5.5 1.055-1.851 1.126-3.264 3.147-2.686 5.016-1.967-1.044-4.17-2.343-5.706-3.706-1.051-.933.944-2.137 1.297-2.467.49-.458 2.027-2.43 1.123-2.359-.905.07-2.43 2.746-3.621 3.291-.163.075-.41.209-.596.157-.186-.052-.548-.215-.656-.303-.828-.668-4.004-2.879-4.77-2.657-.767.222.774.985 1.239 1.314 2.575 1.81 5.72 3.95 8.233 6 .815.664 1.466 1.231 1.953 2.094.488.863.489 1.773.075 2.677-4.537-1.854-8.268-4.559-12.88-6.39-1.141-.452-2.55-1.202-2.927-2.068-.551-1.264 2.314-2.803 1.005-3.52-.705-.386-2.713 3.017-2.79 3.645a13.979 13.979 0 0 1-2.537-1.592c-1.222-.97-1.186-1.887-1.855-3.156-.313-.593-1.492-1.594-2.05-1.99-.557-.396-1.464-.56-.874-.018.897.826 1.483 1.374 2.16 2.366.196.288 1.335 2.199.639 2.367-2.954.716-7.2-3.036-9.351-4.257-.838-.475-.824-.572-1.583-.865-.241.81.722 1.19 1.352 1.567 1.176.706 3.185 2.346 4.007 2.831 2.11 1.245 3.683 2.06 6.06 1.782 1.402.84 2.455 1.562 3.975 2.447 1.519.885 3.19 2.01 4.995 2.786 3.022 1.302 6.057 2.75 8.509 4.695C93.305 75.126 95.506 78.413 96 81c.84 4.399 1 8 1 12.5 0 3.782.482 15.315.43 15.31 2.07.69 3.07.69 4.925.168z" id="p"/><path d="M134.786 56.056c-.188.071-.498-.04-.745-.013-1.685.194-3.377.833-5.042 1.045-.632.081-1.021-.125-1.632-.189.42-.49.013-.577.45-1.204s1.582-.855 2.683-.612c1.1.243 3.065.46 4.344.572-.058.114.129.33-.058.401m-15.397-.466c-3.393.368 2.448-1.805 3.383-1.984-1.239.823-1.754 1.807-3.383 1.984m-16.834-.302c-.4.702-.919 1.055-1.29 1.73-.055.096-.097.162-.141.265a14.362 14.362 0 0 0-3.678-1.688c.06-.125.483-.394.547-.422 1.162-.486 6.028-2.457 4.563.115m-7.84-2.997c.024-.118-.19-.23-.12-.339.49-.745.623-1.396.438-2.269a31.42 31.42 0 0 1 1.677-.133c-.794.834-1.43 1.74-1.995 2.741m-23.145 1.93c.246-.026.255-.104.555-.065.3.04.757.258.903.605-.641.192-1.016-.069-1.459-.54m-9.454-.366c-.11-.652.165-1.177.769-1.404.604-.227 1.38-.357 1.917-.5.534-.145.574.002 1.016.133-1.23.626-2.44 1.243-3.703 1.771m86.758 1.951c0-.059-.03-.124-.053-.183-1.166-2.808-2.976-5.066-5.81-6.219-2.468-1.006-4.435-.554-7.071-.25-.748.084-2.143 1.021-3.076.526-.933-.497-.962-2.303-1.457-3.006-1.36-1.936-2.938-2.885-5.014-3.682-1.18-.454-2.322-.527-3.54-.623-1.217-.095-2.565.29-3.734.071-2.861-.532-5.569-1.284-8.406-1.74-.478-.077-.996.012-1.44-.155-2.248-.846-5.043-1.49-7.32-1.538-4.484-.094-8.909.753-13.151.884-4.688.144-8.245 2.098-12.493 3.406-2.13.656-4.02.783-5.95 1.873-.022.012-.03.004-.049.012-1.498.637-2.575 1.648-3.998 2.475-1.422.826-3.169 1.157-4.653 1.986-.483.27-.8.682-1.066 1.215-.523 1.051-1.43 1.166-2.41 1.81-.977.645-1.758 1.576-2.044 2.82-.286 1.242-.078 2.568.177 3.82.029.144.104.3.217.364.112.066.218.052.32.027 2.546-.64 4.85-1.86 7.46-2.262.294-.045.642-.036.924.128.945.554 1.263 1.746 2.303 2.19.645.274 1.282-.105 2.004.128.723.234 1.478.703 2.336.552 1.313-.232 2.142-1.258 3.457-.303.425.31.727.868 1.165 1.238a5.79 5.79 0 0 0 2.948 1.333c2.14.318 4.066.061 6.084-.762.841-.343 1.602-1.296 2.55-1.377 1.397-.118 2.788.781 4.067 1.014 1.877.342 3.594.56 5.451.538 3.713-.043 7.153-.728 10.647-1.956 1.01-.355 1.986-.757 3.016-.334.666.273.975.946 1.541 1.31 2.058 1.318 3.882-.088 5.904-.623 1.594-.422 3.108-.468 4.645-.287 1.537.182 2.72 1.035 4.228 1.168.946.083 1.79-.243 2.702-.46 2.215-.529 4.382-.689 6.645-.442.865.094 1.683.277 2.548.302.317.01.633-.009.905-.152 1.243-.659.012-1.847.737-2.665 1.636-1.849 4.775-.959 6.875-.933.983.012.9-.563.88-1.238" id="q"/></defs><g fill="none" fill-rule="evenodd"><g transform="rotate(90 101 51)"><use fill="#C1E4ED" xlink:href="#d"/><use fill="url(#e)" style="mix-blend-mode:overlay" xlink:href="#d"/><use fill="#C1E4ED" style="mix-blend-mode:color" xlink:href="#d"/></g><use fill="#EAF6F7" xlink:href="#f"/><use fill-opacity=".15" fill="url(#g)" style="mix-blend-mode:color-burn" xlink:href="#f"/><path d="M0 61.081c3.2 2.008 7.294 2.741 10.894 3.468 3.281.664 5.522 3.316 6.924 6.218 1.173 2.427 1.976 5.026 3.165 7.441.77 1.565 1.915 3.056 3.543 3.683 1.045.403 2.193.413 3.313.422 8.315.062 22.702-.655 28.153 7.23 2.03 2.936 3.87 5.906 7.176 7.583a50.12 50.12 0 0 0 7.263 2.99c2.441.786 5.18 1.372 7.525.345 2.35-1.028 3.807-3.474 6.185-4.437 2.091-.847 4.492-.384 6.635.33 2.778.926 5.872 2.578 8.803 1.28.885-.39 1.75-.888 2.715-1.005 1.496-.178 2.958.585 4.465.554 1.774-.037 3.331-1.156 5.073-1.485 2.228-.42 4.617.482 6.751-.43 2.348-1.003 4.12-1.53 6.727-1.983 5.092-.882 9.586-4.45 14.757-4.34 1.97.043 4.043.612 5.84-.17 2.802-1.224 3.73-5.254 6.74-5.852.502-.099 1.03-.088 1.516-.245 1.215-.388 1.86-1.702 2.014-2.934.155-1.233-.04-2.492.16-3.718.611-3.765 4.61-6.048 8.36-7.177 3.42-1.03 7.018-1.567 10.256-3.05 1.58-.724 3.071-1.672 4.761-2.104 3.96-1.012 8.705.856 11.981-1.527 2.183-1.588 2.78-4.458 3.324-7.052.372-1.775.851-3.703 2.011-5.167 1.161-1.466 2.884-2.383 2.97-4.497.02-.522.02 18.012 0 55.604H0V61.081z" fill="#FFF"/><path d="M39 100.5c-2.623-1.937-8.73-1.644-11.808-1.882-1.43-.11-2.896-.251-4.18-.891-1.58-.788-2.727-2.257-4.262-3.133-1.496-.854-3.251-1.091-4.936-1.447A32.51 32.51 0 0 1 .959 87.28c-.735-.558-1.551-1.156-2.4-1.51-.012 4.72-.073 10.019-.288 14.73 13.243.12 40.731.5 40.729 0z" fill="#AA725A"/><path d="M165.815 101h-37.583c.555-.029 1.107-1.145 1.643-1.271 1.971-.464 3.565-1.731 5.588-2.028 1.636-.239 3.3.209 4.93-.03 1.554-.228 2.935-.972 4.227-1.651 1.407-.756 1.383-2.776 2.21-2.994 1.28-.338 4.938 2.766 7.14 3.895 1.897.975 3.94 1.741 6.184 2.035 1.897.247 3.971 1.185 5.66 2.044zm-92.255-.361h-22a16.613 16.613 0 0 0 1.85-.577c1.964-.743 3.777-1.85 5.735-2.612 1.958-.76 4.174-1.156 6.142-.421.753.28 1.438.715 2.137 1.115a25.328 25.328 0 0 0 6.136 2.495z" fill="#81C8C6"/><use fill="#C5995D" xlink:href="#h"/><use fill="url(#i)" style="mix-blend-mode:color-burn" xlink:href="#h"/><use fill="#95AD58" xlink:href="#j"/><use fill="url(#i)" style="mix-blend-mode:color-burn" xlink:href="#j"/><use fill="#DFC468" xlink:href="#k"/><use fill="url(#i)" style="mix-blend-mode:color-burn" xlink:href="#k"/><use fill="#4A9F7F" xlink:href="#l"/><use fill="url(#e)" style="mix-blend-mode:overlay" xlink:href="#l"/><use fill="#8A642D" xlink:href="#m"/><use fill="url(#e)" style="mix-blend-mode:overlay" xlink:href="#m"/><path d="M112.767 18.36c-2.786-.113-10.152.6-10.378-.532-.165-.826 6.088.018 7.991-.83 1.696-.756 3.037-2.562 4.95-2.754 1.97-.198 3.618 1.355 5.554 1.767 4.714 1.005 14.814 1.082 14.84 1.68.041.962-2.894.803-4.407.784-5.49-.07-13.037.113-18.55-.114zm-84.12 4.142c6.769-1.736 34.864-.896 34.822-.025-.052 1.111-7.529.515-10.953.575-3.62.064-20.282-.017-23.869-.55zm100.167-.05c6.769-1.736 34.864-.896 34.822-.025-.053 1.11-7.53.515-10.953.575-3.62.064-20.284-.017-23.87-.55z" fill="#FFF"/><path fill="#A0D4E2" d="M0 100.639l200 3.861v1.5H0z"/><ellipse fill="#658936" cx="161.5" cy="108" rx="9.5" ry="1"/><use fill="#9F855D" xlink:href="#n"/><use fill="url(#e)" style="mix-blend-mode:overlay" xlink:href="#n"/><g><use fill="#B3B42D" xlink:href="#o"/><use fill="url(#e)" style="mix-blend-mode:overlay" xlink:href="#o"/></g><path d="M46.126 125A4.002 4.002 0 0 1 54 126a4 4 0 0 1-7.874 1H42a1 1 0 0 1-1-1v-12a1 1 0 1 1 2 0v11h3.126zm37.797.217l7.077-.19V114a1 1 0 0 1 2 0v12a1 1 0 0 1-.973 1l-8.217.22A4.002 4.002 0 0 1 76 126a4 4 0 0 1 7.923-.783zM116.126 118a4.002 4.002 0 0 1 7.874 1 4 4 0 0 1-7.874 1H108a1 1 0 0 1-1-1v-5a1 1 0 1 1 2 0v4h7.126zm29.748 14h4.212l5-5H105v5.586l12.968 12.968a4 4 0 1 1-1.414 1.414l-13.261-13.26A1 1 0 0 1 103 133v-19a1 1 0 1 1 2 0v11h51v-11a1 1 0 1 1 2 0v12.5a1 1 0 0 1-.293.707l-6.5 6.5a1 1 0 0 1-.707.293h-4.626a4.002 4.002 0 0 1-7.874-1 4 4 0 0 1 7.874-1zm-26.918 15.294a.996.996 0 0 1-.662.662 2 2 0 1 0 .662-.662zm52.012-24.74a4 4 0 1 1-1.414 1.414l-5.261-5.26A1 1 0 0 1 164 118v-4a1 1 0 1 1 2 0v3.586l4.968 4.968zM59 159.126A4.002 4.002 0 0 1 58 167a4 4 0 0 1-1-7.874v-3.211l-23.707-23.67a1 1 0 0 1-.293-.707V114a1 1 0 1 1 2 0v17.123l23.707 23.67a1 1 0 0 1 .293.707v3.626zm84 0a4.002 4.002 0 0 1-1 7.874 4 4 0 0 1-1-7.874v-11.763a1 1 0 0 1 .289-.704L160 127.743V114a1 1 0 1 1 2 0v14.154a1 1 0 0 1-.289.703L143 147.774v11.352zm-62-14A4.002 4.002 0 0 1 80 153a4 4 0 0 1-1-7.874V141H48a1 1 0 0 1-.707-.293l-10-10A1 1 0 0 1 37 130v-16a1 1 0 1 1 2 0v15.586L48.414 139H95v-25a1 1 0 1 1 2 0v26a1 1 0 0 1-1 1H81v4.126zm20 29a4.002 4.002 0 0 1-1 7.874 4 4 0 0 1-1-7.874V114a1 1 0 1 1 2 0v60.126zM100 180a2 2 0 1 0 0-4 2 2 0 0 0 0 4zm-20-29a2 2 0 1 0 0-4 2 2 0 0 0 0 4zm62 14a2 2 0 1 0 0-4 2 2 0 0 0 0 4zm-84 0a2 2 0 1 0 0-4 2 2 0 0 0 0 4zm115-37a2 2 0 1 0 0-4 2 2 0 0 0 0 4zm-31 7a2 2 0 1 0 0-4 2 2 0 0 0 0 4zm-22-14a2 2 0 1 0 0-4 2 2 0 0 0 0 4zm-40 7a2 2 0 1 0 0-4 2 2 0 0 0 0 4zm-30 0a2 2 0 1 0 0-4 2 2 0 0 0 0 4z" fill="#4B2C04" fill-rule="nonzero"/><ellipse fill="#658936" cx="100" cy="109" rx="6" ry="2"/><g><use fill="#4B2C04" xlink:href="#p"/><use fill="url(#e)" style="mix-blend-mode:color-burn" xlink:href="#p"/></g><g><use fill="#698700" xlink:href="#q"/><use fill="url(#e)" style="mix-blend-mode:multiply" xlink:href="#q"/></g><path d="M81.12 159.16c2.284 5.36 2.834 8.593.993 8.339-1.718-4.775-2.773-7.691-.993-8.34zm39.863.556c3.366 0 12.993 17.471 11.871 20.284-3.366-3.375-10.188-15.784-11.87-20.284zM40 154c2.525 0 5.33-.042 4.49 2.145-1.634.826-3.363.067-4.49-2.145zm-8.71-1.662c5.024 0 10.36 2.485 8.685 6.627-6.84 1.104-6.173 0-8.686-6.627zM53 114c4.628 0 8.631 1.384 7.088 5.134C57.634 120.412 55.314 120 53 114zm10.502 6.947c2.314-1.874 6.296 2.144 7.547 5.267-.538 1.844-3.153-2.207-7.547-5.267zm.987 4.335c6.864 2.399 9.832 7.496 9.925 12.572-3.59-4.79-5.325-7.95-9.925-12.572zM166 142c3 0 7.733 3.257 5.023 5.41-2.709 2.154-8.921-1.48-5.023-5.41z" fill="#8A642D"/><path d="M18.042 103.137a.5.5 0 0 1 .012-1l21.246.268a.5.5 0 0 1-.012 1l-21.246-.268zM7.5 105a.5.5 0 0 1 0-1h21.242a.5.5 0 0 1 0 1H7.5z" fill="#FFF" fill-rule="nonzero"/></g></svg>