<svg width="200" height="200" xmlns="http://www.w3.org/2000/svg" xmlns:xlink="http://www.w3.org/1999/xlink"><defs><pattern id="g" width="16" height="16" x="0" y="0" patternUnits="userSpaceOnUse"><use xlink:href="#a"/></pattern><image id="a" width="16" height="16" xlink:href="./textures/tile.png"/><pattern id="e" width="128" height="128" x="0" y="0" patternUnits="userSpaceOnUse"><use xlink:href="#b"/></pattern><image id="b" width="128" height="128" xlink:href="./textures/grain.png"/><pattern id="i" width="128" height="128" x="0" y="0" patternUnits="userSpaceOnUse"><use xlink:href="#c"/></pattern><image id="c" width="128" height="128" xlink:href="./textures/dust.png"/><path id="d" d="M17.777-18.354h164v200h-164z"/><path d="M200 126.909c-3.062 1.765-11.362 3.453-12.003 3.444-4.416-.05-7.57-3.444-13.093-3.444-8.673 0-15.703 4.776-15.703 10.666 0 3.563-.093 2.477-5.409 3.944-3.813 1.052-6.887 2.943-7.913 5.283-3.745.857-7.266-1.276-10.424-2.69-7.961-3.56-16.636-2.029-24.507.386-1.918.588-2.085 1.386-4.124 1.589-2.043.2-6.217-.923-8.566-1.002-6.069-.202-26.157.58-31.425 2.285-.535.174-1.111.363-1.728.329-.639-.033-1.15-.296-1.614-.544-3.614-1.947-7.874-3.842-9.55-6.593-3.105-5.154-14.557-8.168-23.64-6.219-2.965-3.629-8.967-6.44-15.88-7.434 2.924-7.262-2.33-15.114-14.421-18.228v52.3h200V126.91z" id="f"/><path id="h" d="M0 162.264h200v38H0z"/><path id="j" d="M0 160.264h200v8L0 163.82z"/><path d="M103.781 181.46c.231-.065.219-9.53.219-19.326 0-12.81-.19-18.33 3.01-23.36 4.245-6.67 10.23-10.749 18.106-14.186a154.652 154.652 0 0 1 15.324-5.734 161.25 161.25 0 0 1 8.33-2.383c2.494-.642 5.17-.863 6.88-2.594.469-.473 2.902-3.107 2.26-3.794-1.165-1.253-2.292 2.862-3.455 3.322-.314.124-3.44 1.773-3.67 1.008-.325-1.075 1.507-5.299.532-5.393-1.874-.183-2.159 4.138-2.272 5.224-.009.095-.06.325-.135.398-.077.075-.357.058-.458.096-2.996 1.17-11.224 3.337-13.301 2.92-4.18-.836-7.195-7.328-9.013-6.443-1.817.884 5.44 7.152 6.628 8.115-12.097 3.956-21.397 7.01-29.812 15.244.085-3.39-2.706-8.45.25-11.447 2.953-2.997 11.184-2.163 14.33-4.67 1.956-1.557.969-2.898.543-4.243-.426-1.344-2.442-4.134-3.594-4.283-1.15-.151.757 2.917.842 3.157.477 1.356 1.025 2.595.037 3.834-.987 1.241-2.047 1.489-4.201 2.01-1.042.253-8.206 1.962-9.064 1.036-.857-.928 1.001-1.72 2.1-2.014 2.409-.647 7.732-.204 6.828-3.41-.268-.948-1.214-2.104-2.109-2.832-.286-.233-.885-1.768-1.693-1.077-.809.69 3.051 3.522.083 4.79-2.207.94-5.983.19-8.28 1.59-2.786 1.697-4.914 4.742-4.043 7.559-2.962-1.573-6.278-3.531-8.59-5.586-1.582-1.406 1.421-3.22 1.952-3.717.738-.69 3.052-3.661 1.69-3.555-1.361.105-3.656 4.139-5.45 4.96-.245.112-.617.314-.897.236-.28-.079-.825-.324-.988-.456-1.246-1.007-6.027-4.339-7.18-4.004-1.155.333 1.165 1.484 1.865 1.98 3.876 2.728 8.61 5.951 12.393 9.041 1.227 1.002 2.207 1.856 2.94 3.157.735 1.3.737 2.672.113 4.035-6.83-2.796-12.446-6.871-19.389-9.63-1.717-.682-3.837-1.813-4.406-3.118-.83-1.905 3.483-4.225 1.513-5.305-1.061-.582-4.084 4.547-4.2 5.493a21.04 21.04 0 0 1-3.82-2.399c-1.839-1.462-1.785-2.844-2.792-4.756-.471-.894-2.246-2.403-3.086-3-.838-.596-2.204-.844-1.316-.026 1.35 1.246 2.233 2.07 3.252 3.566.295.434 2.01 3.314.962 3.567-4.447 1.08-10.837-4.576-14.077-6.415-1.261-.717-1.24-.863-2.383-1.304-.363 1.22 1.087 1.793 2.036 2.362 1.77 1.063 4.794 3.534 6.032 4.267 3.176 1.876 5.544 3.103 9.122 2.684 2.11 1.266 3.696 2.354 5.984 3.688 2.287 1.334 4.804 3.028 7.52 4.199 4.549 1.961 9.117 4.145 12.809 7.075 3.566 2.83 6.88 7.785 7.623 11.683 1.265 6.63 1.505 12.056 1.505 18.838 0 5.7.726 19.08.649 19.074 3.115 1.039 4.62 1.039 7.412.252z" id="k"/><path d="M172.984 103.909c.03 1.161.157 2.15-1.325 2.13-3.165-.045-7.898-1.576-10.364 1.604-1.091 1.408.764 3.451-1.11 4.585-.41.246-.885.277-1.363.261-1.305-.043-2.537-.358-3.842-.52-3.411-.424-6.677-.15-10.016.76-1.373.374-2.647.935-4.072.792-2.273-.229-4.055-1.696-6.372-2.009-2.316-.311-4.598-.232-7 .494-3.049.92-5.798 3.338-8.9 1.07-.854-.625-1.319-1.782-2.322-2.252-1.553-.728-3.025-.036-4.548.574-5.265 2.113-10.45 3.291-16.046 3.365-2.799.036-5.387-.337-8.216-.925-1.928-.401-4.026-1.948-6.13-1.745-1.43.14-2.576 1.779-3.845 2.369-3.042 1.416-5.945 1.858-9.169 1.31-1.695-.286-3.166-1.06-4.443-2.292-.662-.637-1.115-1.598-1.756-2.13-1.982-1.642-3.232.122-5.21.522-1.294.26-2.432-.547-3.522-.95-1.088-.4-2.048.251-3.02-.222-1.57-.762-2.047-2.812-3.473-3.765-.423-.282-.948-.298-1.393-.22-3.933.69-7.406 2.788-11.242 3.89-.155.044-.315.068-.484-.046-.17-.112-.283-.378-.327-.626-.383-2.154-.698-4.435-.265-6.573.43-2.138 1.606-3.74 3.08-4.849 1.476-1.108 2.845-1.305 3.633-3.113.4-.917.877-1.626 1.607-2.09 2.237-1.426 4.87-1.996 7.013-3.416 2.143-1.423 3.768-3.162 6.026-4.258.029-.013.04 0 .074-.02 2.909-1.875 5.756-2.094 8.968-3.222 6.403-2.25 11.764-5.611 18.829-5.859 6.395-.225 13.063-1.682 19.822-1.52 3.433.082 7.646 1.19 11.034 2.645.67.287 1.449.134 2.17.267 4.277.784 8.357 2.078 12.67 2.993 1.763.375 3.794-.286 5.629-.122 1.836.165 3.557.29 5.335 1.071 3.13 1.371 5.506 3.004 7.558 6.334.746 1.209.79 4.316 2.196 5.17 1.405.852 3.509-.76 4.635-.906 3.973-.521 6.938-1.299 10.659.432 4.27 1.983 6.998 5.867 8.756 10.697.036.102.08.214.081.315zm-21.11.108c.275-.134 0-.542.086-.757-1.875-.212-4.755-.621-6.368-1.08-1.614-.459-3.292-.028-3.93 1.155-.641 1.184-.045 1.346-.662 2.273.896.12 1.466.51 2.392.357 2.44-.4 4.92-1.607 7.39-1.973.364-.053.819.159 1.093.025zm-23.216-1.079c2.573-.262 3.387-1.72 5.342-2.938-1.477.265-10.703 3.483-5.342 2.938zm-26.063.424c2.178-4.691-5.055-1.097-6.78-.21-.097.05-.724.541-.815.77a19.766 19.766 0 0 1 5.467 3.078c.065-.188.129-.308.21-.485.552-1.23 1.324-1.873 1.918-3.153zM58.19 95c.796-1.826 1.69-3.479 2.81-5-.79.053-1.576.135-2.363.243.26 1.592.073 2.78-.617 4.139-.099.197.203.403.17.618zM57 101.47c.606.944 1.12 1.466 2 1.082-.2-.694-.828-1.132-1.24-1.21-.41-.078-.423.078-.76.128zM42.038 100c2.032-.807 3.982-1.749 5.962-2.705-.712-.2-.776-.425-1.637-.203-.863.218-2.114.417-3.087.763-.972.347-1.415 1.15-1.238 2.145z" id="l"/><path id="m" d="M0 0h50v37H0z"/><path id="n" d="M50 12L25 37 0 12z"/><path d="M92.5 86.5c6.5 1 22 6 22 9s-5 4.5-14.5 4.5-13.5 12.5-24 7.5-9.806-11.448-8-18.5c1.806-7.052 18-3.5 24.5-2.5z" id="o"/></defs><g fill="none" fill-rule="evenodd"><g transform="rotate(90 99.777 81.646)"><use fill="#C1E4ED" xlink:href="#d"/><use fill="url(#e)" style="mix-blend-mode:overlay" xlink:href="#d"/><use fill="#C1E4ED" style="mix-blend-mode:color" xlink:href="#d"/></g><use fill="#EAF6F7" xlink:href="#f"/><use fill-opacity=".15" fill="url(#g)" style="mix-blend-mode:color-burn" xlink:href="#f"/><path d="M0 133.85c10.02 3.714 36.75 8.697 44.852 16.582 3.018 2.936 5.753 5.906 10.668 7.583a97.768 97.768 0 0 0 10.796 2.989c3.629.787 7.7 1.373 11.187.346 3.491-1.028 5.659-3.474 9.194-4.437 3.108-.847 6.677-.384 9.863.33 4.13.926 8.729 2.578 13.086 1.28 1.316-.391 2.601-.888 4.036-1.005 2.224-.178 4.397.585 6.637.554 2.637-.037 4.952-1.156 7.541-1.485 3.312-.421 6.864.482 10.036-.43 3.49-1.003 6.125-1.531 10-1.983 7.57-.882 14.25-7.451 21.937-7.34 2.927.043 6.01.612 8.68-.171 4.166-1.223 5.544-2.253 10.02-2.851.747-.099 1.53-.088 2.254-.245 1.806-.388 2.763-1.702 2.994-2.934.23-1.233-.06-2.492.236-3.718.607-2.51 2.6-3.532 5.983-3.065v28.414l-200-.319V133.85z" fill="#FFF"/><path d="M53.027 160.396c-3.934-2.905-13.094-1.715-17.712-2.072-2.144-.166-4.344-.378-6.269-1.338-2.371-1.182-4.092-3.384-6.394-4.7-2.244-1.28-4.877-1.636-7.404-2.17C9.683 148.941 4.822 146.773 0 143.76v16.637c35.354.07 53.03.07 53.027 0z" fill="#AA725A"/><path d="M203.25 161h-56.375c.834-.043 1.662-.822 2.464-1.01 2.958-.696 5.348-2.597 8.382-3.041 2.454-.36 4.952.312 7.397-.046 2.33-.342 4.402-1.458 6.34-2.477 2.11-1.134 2.075-4.163 3.314-4.491 1.92-.507 7.408 4.15 10.71 5.843 2.845 1.462 5.911 2.612 9.276 3.052 2.845.37 5.958.882 8.491 2.17zm-111.383.354h-33c.94-.235 1.868-.521 2.775-.865 2.946-1.115 5.666-2.776 8.602-3.917 2.937-1.14 6.262-1.735 9.214-.633 1.13.42 2.157 1.074 3.205 1.673a37.992 37.992 0 0 0 9.204 3.742z" fill="#81C8C6"/><path d="M94.572 38.938c-4.18-.172-15.228.9-15.567-.8-.248-1.239 9.132.027 11.986-1.245 2.544-1.134 4.556-3.843 7.425-4.131 2.954-.297 5.427 2.032 8.331 2.65 7.071 1.508 22.221 1.623 22.26 2.522.062 1.442-4.34 1.203-6.61 1.175-8.235-.105-19.556.169-27.825-.172zM-2.502 48.45c20.022-3.12 103.124-1.61 103-.045-.154 1.996-22.27.925-32.398 1.033-10.708.115-59.992-.03-70.602-.988zM5 41.213c10.108-2.08 52.063-1.073 52-.03-.078 1.331-11.243.617-16.356.69-5.406.076-30.288-.021-35.644-.66zm93 1.662c24.299-3.12 125.15-1.61 125-.045-.19 1.996-27.027.925-39.318 1.033-12.995.115-72.81-.03-85.682-.988z" fill="#FFF"/><use fill="#AFBE60" xlink:href="#h"/><use fill="url(#i)" style="mix-blend-mode:color-burn" xlink:href="#h"/><use fill="#DFC468" xlink:href="#j"/><use fill="url(#i)" style="mix-blend-mode:color-burn" xlink:href="#j"/><path fill="#A0D4E2" d="M0 163.646l200 4.71v2.18l-200 .728z"/><path d="M43.042 167.866a.5.5 0 0 1 .012-1l21.246.268a.5.5 0 0 1-.012 1l-21.246-.268zM32.5 169.73a.5.5 0 0 1 0-1h21.242a.5.5 0 0 1 0 1H32.5z" fill="#FFF" fill-rule="nonzero"/><ellipse fill="#729840" cx="100" cy="181.5" rx="9" ry="2.5"/><use fill="#4B2C04" xlink:href="#k"/><use fill="url(#e)" style="mix-blend-mode:color-burn" xlink:href="#k"/><path d="M134.485 190.621a.5.5 0 1 1-.97-.242l1.5-6a.5.5 0 1 1 .97.242l-1.5 6zm-59.932-7.897l-1.25-2.5a.5.5 0 0 1 .894-.448l1.25 2.5a.5.5 0 0 1-.894.448zM132.5 190.5a.5.5 0 0 1-1 0v-6a.5.5 0 0 1 1 0v6zm-51.498-8.042l.5-6a.5.5 0 0 1 .996.084l-.5 6a.5.5 0 0 1-.996-.084zm-1.502.042v-6a.5.5 0 0 1 1 0v6a.5.5 0 0 1-1 0zm-1.498.05l-.5-5a.5.5 0 0 1 .996-.1l.5 5a.5.5 0 0 1-.996.1zm52.275 7.749a.5.5 0 1 1-.915.402l-1.32-3a.5.5 0 1 1 .916-.402l1.32 3zm-46.575-8l1.32-3a.5.5 0 0 1 .915.402l-1.32 3a.5.5 0 0 1-.915-.402z" fill="#658936" fill-rule="nonzero"/><g><use fill="#698700" xlink:href="#l"/><use fill="url(#e)" style="mix-blend-mode:multiply" xlink:href="#l"/></g><g><g transform="rotate(-20 226.967 -165.173)"><use fill="#FFF" xlink:href="#m"/><use fill-opacity=".5" fill="url(#g)" xlink:href="#m"/></g><g transform="scale(1 -1) rotate(20 365.914 189.673)"><use fill="#FFF" xlink:href="#n"/><use fill-opacity=".15" fill="url(#g)" xlink:href="#n"/></g><path fill="#A8A8A8" d="M117.507 51.505L100.342 77.44l-29.82-8.834-.342-.94 46.985-17.1z"/><path fill="#FAFAFA" d="M117.165 50.565L100 76.5l-29.82-8.834z"/></g><g><use fill="#698700" xlink:href="#o"/><use fill="url(#e)" style="mix-blend-mode:multiply" xlink:href="#o"/></g></g></svg>